<mxfile host="app.diagrams.net" agent="Mozilla/5.0 (Windows NT 10.0; Win64; x64) AppleWebKit/537.36 (KHTML, like Gecko) Chrome/131.0.0.0 Safari/537.36" version="24.8.9">
  <diagram name="Page-1" id="ABcVtTdDcK6mXqtLEz7-">
    <mxGraphModel dx="5693" dy="2196" grid="1" gridSize="10" guides="1" tooltips="1" connect="1" arrows="1" fold="1" page="1" pageScale="1" pageWidth="850" pageHeight="1100" math="0" shadow="0">
      <root>
        <mxCell id="0" />
        <mxCell id="1" parent="0" />
        <mxCell id="JlgmeeBGbs_2zezeXvUX-1" value="&lt;font style=&quot;font-size: 23px;&quot;&gt;&lt;b&gt;USER&lt;/b&gt;&lt;/font&gt;" style="rounded=0;whiteSpace=wrap;html=1;" parent="1" vertex="1">
          <mxGeometry x="250" y="-260" width="150" height="70" as="geometry" />
        </mxCell>
        <mxCell id="JlgmeeBGbs_2zezeXvUX-2" value="&lt;font style=&quot;font-size: 15px;&quot;&gt;&lt;u&gt;username&lt;/u&gt;&lt;/font&gt;" style="ellipse;whiteSpace=wrap;html=1;" parent="1" vertex="1">
          <mxGeometry x="-65" y="-310" width="120" height="50" as="geometry" />
        </mxCell>
        <mxCell id="JlgmeeBGbs_2zezeXvUX-4" value="&lt;font style=&quot;font-size: 21px;&quot;&gt;role&lt;/font&gt;" style="ellipse;whiteSpace=wrap;html=1;align=center;" parent="1" vertex="1">
          <mxGeometry x="260" y="-440" width="110" height="50" as="geometry" />
        </mxCell>
        <mxCell id="JlgmeeBGbs_2zezeXvUX-5" value="&lt;font style=&quot;font-size: 18px;&quot;&gt;create_at&lt;/font&gt;" style="ellipse;whiteSpace=wrap;html=1;align=center;" parent="1" vertex="1">
          <mxGeometry x="447.5" y="-440" width="110" height="50" as="geometry" />
        </mxCell>
        <mxCell id="JlgmeeBGbs_2zezeXvUX-6" value="&lt;font style=&quot;font-size: 19px;&quot;&gt;update_at&lt;/font&gt;" style="ellipse;whiteSpace=wrap;html=1;align=center;" parent="1" vertex="1">
          <mxGeometry x="575" y="-380" width="110" height="50" as="geometry" />
        </mxCell>
        <mxCell id="JlgmeeBGbs_2zezeXvUX-7" value="" style="endArrow=none;html=1;rounded=0;" parent="1" source="JlgmeeBGbs_2zezeXvUX-2" target="JlgmeeBGbs_2zezeXvUX-1" edge="1">
          <mxGeometry relative="1" as="geometry">
            <mxPoint x="70" y="-300" as="sourcePoint" />
            <mxPoint x="230" y="-300" as="targetPoint" />
          </mxGeometry>
        </mxCell>
        <mxCell id="JlgmeeBGbs_2zezeXvUX-8" value="" style="endArrow=none;html=1;rounded=0;" parent="1" source="kqIVONm1dLysE9pT50F9-2" target="JlgmeeBGbs_2zezeXvUX-1" edge="1">
          <mxGeometry relative="1" as="geometry">
            <mxPoint x="175" y="-400" as="sourcePoint" />
            <mxPoint x="260" y="-242" as="targetPoint" />
          </mxGeometry>
        </mxCell>
        <mxCell id="JlgmeeBGbs_2zezeXvUX-9" value="" style="endArrow=none;html=1;rounded=0;" parent="1" source="JlgmeeBGbs_2zezeXvUX-4" target="JlgmeeBGbs_2zezeXvUX-1" edge="1">
          <mxGeometry relative="1" as="geometry">
            <mxPoint x="232" y="-341" as="sourcePoint" />
            <mxPoint x="298" y="-250" as="targetPoint" />
          </mxGeometry>
        </mxCell>
        <mxCell id="JlgmeeBGbs_2zezeXvUX-10" value="" style="endArrow=none;html=1;rounded=0;" parent="1" source="JlgmeeBGbs_2zezeXvUX-5" target="JlgmeeBGbs_2zezeXvUX-1" edge="1">
          <mxGeometry relative="1" as="geometry">
            <mxPoint x="366" y="-340" as="sourcePoint" />
            <mxPoint x="331" y="-250" as="targetPoint" />
          </mxGeometry>
        </mxCell>
        <mxCell id="JlgmeeBGbs_2zezeXvUX-11" value="" style="endArrow=none;html=1;rounded=0;" parent="1" source="JlgmeeBGbs_2zezeXvUX-6" target="JlgmeeBGbs_2zezeXvUX-1" edge="1">
          <mxGeometry relative="1" as="geometry">
            <mxPoint x="485" y="-334" as="sourcePoint" />
            <mxPoint x="363" y="-250" as="targetPoint" />
          </mxGeometry>
        </mxCell>
        <mxCell id="JlgmeeBGbs_2zezeXvUX-12" value="&lt;font style=&quot;font-size: 23px;&quot;&gt;&lt;b&gt;STUDENT&lt;/b&gt;&lt;/font&gt;" style="rounded=0;whiteSpace=wrap;html=1;" parent="1" vertex="1">
          <mxGeometry x="260" y="530" width="150" height="70" as="geometry" />
        </mxCell>
        <mxCell id="JlgmeeBGbs_2zezeXvUX-13" value="IS A" style="shape=rhombus;perimeter=rhombusPerimeter;whiteSpace=wrap;html=1;align=center;" parent="1" vertex="1">
          <mxGeometry x="250" y="90" width="160" height="80" as="geometry" />
        </mxCell>
        <mxCell id="JlgmeeBGbs_2zezeXvUX-18" value="" style="endArrow=none;html=1;rounded=0;exitX=0.5;exitY=1;exitDx=0;exitDy=0;" parent="1" source="JlgmeeBGbs_2zezeXvUX-1" target="JlgmeeBGbs_2zezeXvUX-13" edge="1">
          <mxGeometry relative="1" as="geometry">
            <mxPoint x="70" y="300" as="sourcePoint" />
            <mxPoint x="230" y="300" as="targetPoint" />
          </mxGeometry>
        </mxCell>
        <mxCell id="JlgmeeBGbs_2zezeXvUX-19" value="1" style="resizable=0;html=1;whiteSpace=wrap;align=right;verticalAlign=bottom;" parent="JlgmeeBGbs_2zezeXvUX-18" connectable="0" vertex="1">
          <mxGeometry x="1" relative="1" as="geometry" />
        </mxCell>
        <mxCell id="JlgmeeBGbs_2zezeXvUX-20" value="" style="shape=link;html=1;rounded=0;entryX=0.5;entryY=1;entryDx=0;entryDy=0;" parent="1" source="JlgmeeBGbs_2zezeXvUX-12" target="JlgmeeBGbs_2zezeXvUX-13" edge="1">
          <mxGeometry relative="1" as="geometry">
            <mxPoint x="50" y="480" as="sourcePoint" />
            <mxPoint x="210" y="480" as="targetPoint" />
          </mxGeometry>
        </mxCell>
        <mxCell id="JlgmeeBGbs_2zezeXvUX-21" value="1" style="resizable=0;html=1;whiteSpace=wrap;align=right;verticalAlign=bottom;" parent="JlgmeeBGbs_2zezeXvUX-20" connectable="0" vertex="1">
          <mxGeometry x="1" relative="1" as="geometry" />
        </mxCell>
        <mxCell id="JlgmeeBGbs_2zezeXvUX-24" value="&lt;font style=&quot;font-size: 15px;&quot;&gt;&lt;u&gt;Student_id&lt;/u&gt;&lt;/font&gt;" style="ellipse;whiteSpace=wrap;html=1;" parent="1" vertex="1">
          <mxGeometry x="100" y="270" width="150" height="80" as="geometry" />
        </mxCell>
        <mxCell id="JlgmeeBGbs_2zezeXvUX-27" value="&lt;font style=&quot;font-size: 18px;&quot;&gt;page_balance&lt;/font&gt;" style="ellipse;whiteSpace=wrap;html=1;align=center;" parent="1" vertex="1">
          <mxGeometry x="-140" y="370" width="180" height="80" as="geometry" />
        </mxCell>
        <mxCell id="JlgmeeBGbs_2zezeXvUX-29" value="&lt;span style=&quot;font-size: 18px;&quot;&gt;create_at&lt;/span&gt;" style="ellipse;whiteSpace=wrap;html=1;align=center;" parent="1" vertex="1">
          <mxGeometry x="140" y="175" width="140" height="80" as="geometry" />
        </mxCell>
        <mxCell id="JlgmeeBGbs_2zezeXvUX-30" value="" style="endArrow=none;html=1;rounded=0;" parent="1" source="JlgmeeBGbs_2zezeXvUX-24" target="JlgmeeBGbs_2zezeXvUX-12" edge="1">
          <mxGeometry relative="1" as="geometry">
            <mxPoint x="170" y="640" as="sourcePoint" />
            <mxPoint x="330" y="640" as="targetPoint" />
          </mxGeometry>
        </mxCell>
        <mxCell id="JlgmeeBGbs_2zezeXvUX-32" value="" style="endArrow=none;html=1;rounded=0;" parent="1" source="JlgmeeBGbs_2zezeXvUX-27" target="JlgmeeBGbs_2zezeXvUX-12" edge="1">
          <mxGeometry relative="1" as="geometry">
            <mxPoint x="129" y="709" as="sourcePoint" />
            <mxPoint x="288" y="610" as="targetPoint" />
          </mxGeometry>
        </mxCell>
        <mxCell id="JlgmeeBGbs_2zezeXvUX-33" value="" style="endArrow=none;html=1;rounded=0;" parent="1" source="JlgmeeBGbs_2zezeXvUX-29" target="JlgmeeBGbs_2zezeXvUX-12" edge="1">
          <mxGeometry relative="1" as="geometry">
            <mxPoint x="283" y="760" as="sourcePoint" />
            <mxPoint x="333" y="610" as="targetPoint" />
          </mxGeometry>
        </mxCell>
        <mxCell id="JlgmeeBGbs_2zezeXvUX-34" value="&lt;font style=&quot;font-size: 23px;&quot;&gt;&lt;b&gt;PRINTER&lt;/b&gt;&lt;/font&gt;" style="rounded=0;whiteSpace=wrap;html=1;" parent="1" vertex="1">
          <mxGeometry x="1340" y="1140" width="190" height="70" as="geometry" />
        </mxCell>
        <mxCell id="JlgmeeBGbs_2zezeXvUX-35" value="&lt;font style=&quot;font-size: 15px;&quot;&gt;&lt;u&gt;printer_id&lt;/u&gt;&lt;/font&gt;" style="ellipse;whiteSpace=wrap;html=1;" parent="1" vertex="1">
          <mxGeometry x="1250" y="1310" width="120" height="50" as="geometry" />
        </mxCell>
        <mxCell id="JlgmeeBGbs_2zezeXvUX-36" value="&lt;span style=&quot;font-size: 18px;&quot;&gt;printer_name&lt;/span&gt;" style="ellipse;whiteSpace=wrap;html=1;align=center;" parent="1" vertex="1">
          <mxGeometry x="1485" y="950" width="140" height="50" as="geometry" />
        </mxCell>
        <mxCell id="JlgmeeBGbs_2zezeXvUX-37" value="&lt;span style=&quot;font-size: 18px;&quot;&gt;brand&lt;/span&gt;" style="ellipse;whiteSpace=wrap;html=1;align=center;" parent="1" vertex="1">
          <mxGeometry x="1720" y="940" width="140" height="50" as="geometry" />
        </mxCell>
        <mxCell id="JlgmeeBGbs_2zezeXvUX-38" value="&lt;span style=&quot;font-size: 18px;&quot;&gt;Description&lt;/span&gt;" style="ellipse;whiteSpace=wrap;html=1;align=center;" parent="1" vertex="1">
          <mxGeometry x="1840" y="1130" width="140" height="50" as="geometry" />
        </mxCell>
        <mxCell id="JlgmeeBGbs_2zezeXvUX-39" value="&lt;span style=&quot;font-size: 18px;&quot;&gt;Model&lt;/span&gt;" style="ellipse;whiteSpace=wrap;html=1;align=center;" parent="1" vertex="1">
          <mxGeometry x="1740" y="1050" width="140" height="50" as="geometry" />
        </mxCell>
        <mxCell id="JlgmeeBGbs_2zezeXvUX-41" value="&lt;span style=&quot;font-size: 18px;&quot;&gt;campus_name&lt;/span&gt;" style="ellipse;whiteSpace=wrap;html=1;align=center;" parent="1" vertex="1">
          <mxGeometry x="1900" y="1210" width="140" height="50" as="geometry" />
        </mxCell>
        <mxCell id="JlgmeeBGbs_2zezeXvUX-42" value="&lt;span style=&quot;font-size: 18px;&quot;&gt;building_name&lt;/span&gt;" style="ellipse;whiteSpace=wrap;html=1;align=center;" parent="1" vertex="1">
          <mxGeometry x="1820" y="1300" width="140" height="50" as="geometry" />
        </mxCell>
        <mxCell id="JlgmeeBGbs_2zezeXvUX-43" value="&lt;span style=&quot;font-size: 18px;&quot;&gt;room_number&lt;/span&gt;" style="ellipse;whiteSpace=wrap;html=1;align=center;" parent="1" vertex="1">
          <mxGeometry x="1730" y="1350" width="140" height="50" as="geometry" />
        </mxCell>
        <mxCell id="JlgmeeBGbs_2zezeXvUX-44" value="&lt;span style=&quot;font-size: 18px;&quot;&gt;status&lt;/span&gt;" style="ellipse;whiteSpace=wrap;html=1;align=center;" parent="1" vertex="1">
          <mxGeometry x="1365" y="1390" width="140" height="50" as="geometry" />
        </mxCell>
        <mxCell id="JlgmeeBGbs_2zezeXvUX-45" value="&lt;span style=&quot;font-size: 18px;&quot;&gt;create_at&lt;/span&gt;" style="ellipse;whiteSpace=wrap;html=1;align=center;" parent="1" vertex="1">
          <mxGeometry x="1510" y="1395" width="140" height="50" as="geometry" />
        </mxCell>
        <mxCell id="JlgmeeBGbs_2zezeXvUX-46" value="&lt;span style=&quot;font-size: 18px;&quot;&gt;updated_at&lt;/span&gt;" style="ellipse;whiteSpace=wrap;html=1;align=center;" parent="1" vertex="1">
          <mxGeometry x="1630" y="1390" width="140" height="50" as="geometry" />
        </mxCell>
        <mxCell id="JlgmeeBGbs_2zezeXvUX-47" value="" style="endArrow=none;html=1;rounded=0;" parent="1" source="JlgmeeBGbs_2zezeXvUX-36" target="JlgmeeBGbs_2zezeXvUX-34" edge="1">
          <mxGeometry relative="1" as="geometry">
            <mxPoint x="1380" y="1130" as="sourcePoint" />
            <mxPoint x="1540" y="1130" as="targetPoint" />
          </mxGeometry>
        </mxCell>
        <mxCell id="JlgmeeBGbs_2zezeXvUX-48" value="" style="endArrow=none;html=1;rounded=0;" parent="1" source="JlgmeeBGbs_2zezeXvUX-35" target="JlgmeeBGbs_2zezeXvUX-34" edge="1">
          <mxGeometry relative="1" as="geometry">
            <mxPoint x="1253" y="1157" as="sourcePoint" />
            <mxPoint x="1363" y="1230" as="targetPoint" />
          </mxGeometry>
        </mxCell>
        <mxCell id="JlgmeeBGbs_2zezeXvUX-49" value="" style="endArrow=none;html=1;rounded=0;" parent="1" source="JlgmeeBGbs_2zezeXvUX-44" target="JlgmeeBGbs_2zezeXvUX-34" edge="1">
          <mxGeometry relative="1" as="geometry">
            <mxPoint x="1189" y="1249" as="sourcePoint" />
            <mxPoint x="1340" y="1260" as="targetPoint" />
          </mxGeometry>
        </mxCell>
        <mxCell id="JlgmeeBGbs_2zezeXvUX-50" value="" style="endArrow=none;html=1;rounded=0;" parent="1" source="JlgmeeBGbs_2zezeXvUX-45" target="JlgmeeBGbs_2zezeXvUX-34" edge="1">
          <mxGeometry relative="1" as="geometry">
            <mxPoint x="1236" y="1374" as="sourcePoint" />
            <mxPoint x="1357" y="1300" as="targetPoint" />
          </mxGeometry>
        </mxCell>
        <mxCell id="JlgmeeBGbs_2zezeXvUX-51" value="" style="endArrow=none;html=1;rounded=0;" parent="1" source="JlgmeeBGbs_2zezeXvUX-46" target="JlgmeeBGbs_2zezeXvUX-34" edge="1">
          <mxGeometry relative="1" as="geometry">
            <mxPoint x="1444" y="1380" as="sourcePoint" />
            <mxPoint x="1424" y="1300" as="targetPoint" />
          </mxGeometry>
        </mxCell>
        <mxCell id="JlgmeeBGbs_2zezeXvUX-52" value="" style="endArrow=none;html=1;rounded=0;" parent="1" source="JlgmeeBGbs_2zezeXvUX-43" target="JlgmeeBGbs_2zezeXvUX-34" edge="1">
          <mxGeometry relative="1" as="geometry">
            <mxPoint x="1623" y="1384" as="sourcePoint" />
            <mxPoint x="1476" y="1300" as="targetPoint" />
          </mxGeometry>
        </mxCell>
        <mxCell id="JlgmeeBGbs_2zezeXvUX-53" value="" style="endArrow=none;html=1;rounded=0;" parent="1" source="JlgmeeBGbs_2zezeXvUX-42" target="JlgmeeBGbs_2zezeXvUX-34" edge="1">
          <mxGeometry relative="1" as="geometry">
            <mxPoint x="1612" y="1311" as="sourcePoint" />
            <mxPoint x="1490" y="1283" as="targetPoint" />
          </mxGeometry>
        </mxCell>
        <mxCell id="JlgmeeBGbs_2zezeXvUX-54" value="" style="endArrow=none;html=1;rounded=0;" parent="1" source="JlgmeeBGbs_2zezeXvUX-41" target="JlgmeeBGbs_2zezeXvUX-34" edge="1">
          <mxGeometry relative="1" as="geometry">
            <mxPoint x="1680" y="1253" as="sourcePoint" />
            <mxPoint x="1490" y="1262" as="targetPoint" />
          </mxGeometry>
        </mxCell>
        <mxCell id="JlgmeeBGbs_2zezeXvUX-55" value="" style="endArrow=none;html=1;rounded=0;" parent="1" source="JlgmeeBGbs_2zezeXvUX-38" target="JlgmeeBGbs_2zezeXvUX-34" edge="1">
          <mxGeometry relative="1" as="geometry">
            <mxPoint x="1717" y="1171" as="sourcePoint" />
            <mxPoint x="1490" y="1242" as="targetPoint" />
          </mxGeometry>
        </mxCell>
        <mxCell id="JlgmeeBGbs_2zezeXvUX-56" value="" style="endArrow=none;html=1;rounded=0;" parent="1" source="JlgmeeBGbs_2zezeXvUX-39" target="JlgmeeBGbs_2zezeXvUX-34" edge="1">
          <mxGeometry relative="1" as="geometry">
            <mxPoint x="1688" y="1077" as="sourcePoint" />
            <mxPoint x="1466" y="1230" as="targetPoint" />
          </mxGeometry>
        </mxCell>
        <mxCell id="JlgmeeBGbs_2zezeXvUX-57" value="" style="endArrow=none;html=1;rounded=0;" parent="1" source="JlgmeeBGbs_2zezeXvUX-37" target="JlgmeeBGbs_2zezeXvUX-34" edge="1">
          <mxGeometry relative="1" as="geometry">
            <mxPoint x="1540" y="1040" as="sourcePoint" />
            <mxPoint x="1435" y="1230" as="targetPoint" />
          </mxGeometry>
        </mxCell>
        <mxCell id="JlgmeeBGbs_2zezeXvUX-59" value="&lt;font style=&quot;font-size: 23px;&quot;&gt;&lt;b&gt;FILE&lt;/b&gt;&lt;/font&gt;" style="rounded=0;whiteSpace=wrap;html=1;" parent="1" vertex="1">
          <mxGeometry x="1055" y="530" width="150" height="70" as="geometry" />
        </mxCell>
        <mxCell id="JlgmeeBGbs_2zezeXvUX-61" value="&lt;font style=&quot;font-size: 21px;&quot;&gt;&lt;u style=&quot;&quot;&gt;file_id&lt;/u&gt;&lt;/font&gt;" style="ellipse;whiteSpace=wrap;html=1;" parent="1" vertex="1">
          <mxGeometry x="1040" y="300" width="150" height="90" as="geometry" />
        </mxCell>
        <mxCell id="JlgmeeBGbs_2zezeXvUX-63" value="&lt;font style=&quot;font-size: 18px;&quot;&gt;Filename&lt;/font&gt;" style="ellipse;whiteSpace=wrap;html=1;align=center;" parent="1" vertex="1">
          <mxGeometry x="1317.5" y="440" width="135" height="60" as="geometry" />
        </mxCell>
        <mxCell id="JlgmeeBGbs_2zezeXvUX-64" value="&lt;span style=&quot;font-size: 18px;&quot;&gt;file_path&lt;/span&gt;" style="ellipse;whiteSpace=wrap;html=1;align=center;" parent="1" vertex="1">
          <mxGeometry x="1270" y="810" width="190" height="60" as="geometry" />
        </mxCell>
        <mxCell id="JlgmeeBGbs_2zezeXvUX-65" value="&lt;span style=&quot;font-size: 18px;&quot;&gt;file_type&lt;/span&gt;" style="ellipse;whiteSpace=wrap;html=1;align=center;" parent="1" vertex="1">
          <mxGeometry x="820" y="330" width="190" height="60" as="geometry" />
        </mxCell>
        <mxCell id="JlgmeeBGbs_2zezeXvUX-66" value="&lt;span style=&quot;font-size: 18px;&quot;&gt;size_in_bytes&lt;/span&gt;" style="ellipse;whiteSpace=wrap;html=1;align=center;" parent="1" vertex="1">
          <mxGeometry x="1160" y="865" width="190" height="60" as="geometry" />
        </mxCell>
        <mxCell id="JlgmeeBGbs_2zezeXvUX-67" value="&lt;span style=&quot;font-size: 18px;&quot;&gt;uploaded_at&lt;/span&gt;" style="ellipse;whiteSpace=wrap;html=1;align=center;" parent="1" vertex="1">
          <mxGeometry x="1290" y="690" width="190" height="60" as="geometry" />
        </mxCell>
        <mxCell id="JlgmeeBGbs_2zezeXvUX-68" value="&lt;span style=&quot;font-size: 18px;&quot;&gt;status&lt;/span&gt;" style="ellipse;whiteSpace=wrap;html=1;align=center;" parent="1" vertex="1">
          <mxGeometry x="1240" y="300" width="190" height="60" as="geometry" />
        </mxCell>
        <mxCell id="JlgmeeBGbs_2zezeXvUX-69" value="" style="endArrow=none;html=1;rounded=0;" parent="1" source="JlgmeeBGbs_2zezeXvUX-61" target="JlgmeeBGbs_2zezeXvUX-59" edge="1">
          <mxGeometry relative="1" as="geometry">
            <mxPoint x="985" y="450" as="sourcePoint" />
            <mxPoint x="1145" y="450" as="targetPoint" />
          </mxGeometry>
        </mxCell>
        <mxCell id="JlgmeeBGbs_2zezeXvUX-70" value="" style="endArrow=none;html=1;rounded=0;" parent="1" source="JlgmeeBGbs_2zezeXvUX-63" target="JlgmeeBGbs_2zezeXvUX-59" edge="1">
          <mxGeometry relative="1" as="geometry">
            <mxPoint x="954" y="519" as="sourcePoint" />
            <mxPoint x="1065" y="553" as="targetPoint" />
          </mxGeometry>
        </mxCell>
        <mxCell id="JlgmeeBGbs_2zezeXvUX-71" value="" style="endArrow=none;html=1;rounded=0;" parent="1" source="JlgmeeBGbs_2zezeXvUX-64" target="JlgmeeBGbs_2zezeXvUX-59" edge="1">
          <mxGeometry relative="1" as="geometry">
            <mxPoint x="996" y="597" as="sourcePoint" />
            <mxPoint x="1065" y="586" as="targetPoint" />
          </mxGeometry>
        </mxCell>
        <mxCell id="JlgmeeBGbs_2zezeXvUX-72" value="" style="endArrow=none;html=1;rounded=0;" parent="1" source="JlgmeeBGbs_2zezeXvUX-65" target="JlgmeeBGbs_2zezeXvUX-59" edge="1">
          <mxGeometry relative="1" as="geometry">
            <mxPoint x="983" y="673" as="sourcePoint" />
            <mxPoint x="1084" y="610" as="targetPoint" />
          </mxGeometry>
        </mxCell>
        <mxCell id="JlgmeeBGbs_2zezeXvUX-73" value="" style="endArrow=none;html=1;rounded=0;" parent="1" source="JlgmeeBGbs_2zezeXvUX-66" target="JlgmeeBGbs_2zezeXvUX-59" edge="1">
          <mxGeometry relative="1" as="geometry">
            <mxPoint x="1123" y="720" as="sourcePoint" />
            <mxPoint x="1136" y="610" as="targetPoint" />
          </mxGeometry>
        </mxCell>
        <mxCell id="JlgmeeBGbs_2zezeXvUX-74" value="" style="endArrow=none;html=1;rounded=0;" parent="1" source="JlgmeeBGbs_2zezeXvUX-67" target="JlgmeeBGbs_2zezeXvUX-59" edge="1">
          <mxGeometry relative="1" as="geometry">
            <mxPoint x="1308" y="683" as="sourcePoint" />
            <mxPoint x="1194" y="610" as="targetPoint" />
          </mxGeometry>
        </mxCell>
        <mxCell id="JlgmeeBGbs_2zezeXvUX-75" value="" style="endArrow=none;html=1;rounded=0;" parent="1" source="JlgmeeBGbs_2zezeXvUX-68" target="JlgmeeBGbs_2zezeXvUX-59" edge="1">
          <mxGeometry relative="1" as="geometry">
            <mxPoint x="1287" y="584" as="sourcePoint" />
            <mxPoint x="1215" y="580" as="targetPoint" />
          </mxGeometry>
        </mxCell>
        <mxCell id="JlgmeeBGbs_2zezeXvUX-77" value="&lt;font style=&quot;font-size: 26px;&quot;&gt;UPLOAD&lt;/font&gt;" style="shape=rhombus;perimeter=rhombusPerimeter;whiteSpace=wrap;html=1;align=center;" parent="1" vertex="1">
          <mxGeometry x="620" y="525" width="220" height="80" as="geometry" />
        </mxCell>
        <mxCell id="JlgmeeBGbs_2zezeXvUX-78" value="" style="shape=link;html=1;rounded=0;entryX=1;entryY=0.5;entryDx=0;entryDy=0;exitX=0;exitY=0.5;exitDx=0;exitDy=0;" parent="1" source="JlgmeeBGbs_2zezeXvUX-59" target="JlgmeeBGbs_2zezeXvUX-77" edge="1">
          <mxGeometry relative="1" as="geometry">
            <mxPoint x="670" y="720" as="sourcePoint" />
            <mxPoint x="830" y="720" as="targetPoint" />
          </mxGeometry>
        </mxCell>
        <mxCell id="JlgmeeBGbs_2zezeXvUX-79" value="N" style="resizable=0;html=1;whiteSpace=wrap;align=right;verticalAlign=bottom;" parent="JlgmeeBGbs_2zezeXvUX-78" connectable="0" vertex="1">
          <mxGeometry x="1" relative="1" as="geometry" />
        </mxCell>
        <mxCell id="JlgmeeBGbs_2zezeXvUX-80" value="" style="endArrow=none;html=1;rounded=0;exitX=1;exitY=0.5;exitDx=0;exitDy=0;entryX=0;entryY=0.5;entryDx=0;entryDy=0;" parent="1" source="JlgmeeBGbs_2zezeXvUX-12" target="JlgmeeBGbs_2zezeXvUX-77" edge="1">
          <mxGeometry relative="1" as="geometry">
            <mxPoint x="360" y="680" as="sourcePoint" />
            <mxPoint x="520" y="680" as="targetPoint" />
          </mxGeometry>
        </mxCell>
        <mxCell id="JlgmeeBGbs_2zezeXvUX-81" value="1" style="resizable=0;html=1;whiteSpace=wrap;align=right;verticalAlign=bottom;" parent="JlgmeeBGbs_2zezeXvUX-80" connectable="0" vertex="1">
          <mxGeometry x="1" relative="1" as="geometry" />
        </mxCell>
        <mxCell id="JlgmeeBGbs_2zezeXvUX-83" value="&lt;font style=&quot;font-size: 23px;&quot;&gt;&lt;b&gt;PRINT_CONFIG&lt;/b&gt;&lt;/font&gt;" style="rounded=0;whiteSpace=wrap;html=1;" parent="1" vertex="1">
          <mxGeometry x="197.5" y="1660" width="250" height="70" as="geometry" />
        </mxCell>
        <mxCell id="JlgmeeBGbs_2zezeXvUX-86" value="&lt;font style=&quot;font-size: 15px;&quot;&gt;&lt;u&gt;Print_config_id&lt;/u&gt;&lt;/font&gt;" style="ellipse;whiteSpace=wrap;html=1;" parent="1" vertex="1">
          <mxGeometry x="-215" y="1860" width="150" height="80" as="geometry" />
        </mxCell>
        <mxCell id="JlgmeeBGbs_2zezeXvUX-87" value="&lt;span style=&quot;font-size: 18px;&quot;&gt;paper_size&lt;/span&gt;" style="ellipse;whiteSpace=wrap;html=1;align=center;" parent="1" vertex="1">
          <mxGeometry x="-65" y="1880" width="140" height="80" as="geometry" />
        </mxCell>
        <mxCell id="JlgmeeBGbs_2zezeXvUX-88" value="&lt;span style=&quot;font-size: 18px;&quot;&gt;page_to_print&lt;/span&gt;" style="ellipse;whiteSpace=wrap;html=1;align=center;" parent="1" vertex="1">
          <mxGeometry x="75" y="1940" width="140" height="80" as="geometry" />
        </mxCell>
        <mxCell id="JlgmeeBGbs_2zezeXvUX-89" value="&lt;span style=&quot;font-size: 18px;&quot;&gt;duplex&lt;/span&gt;" style="ellipse;whiteSpace=wrap;html=1;align=center;" parent="1" vertex="1">
          <mxGeometry x="580" y="1815" width="130" height="50" as="geometry" />
        </mxCell>
        <mxCell id="JlgmeeBGbs_2zezeXvUX-90" value="&lt;span style=&quot;font-size: 18px;&quot;&gt;number_of_copies&lt;/span&gt;" style="ellipse;whiteSpace=wrap;html=1;align=center;" parent="1" vertex="1">
          <mxGeometry x="217.5" y="2030" width="210" height="50" as="geometry" />
        </mxCell>
        <mxCell id="JlgmeeBGbs_2zezeXvUX-92" value="&lt;span style=&quot;font-size: 18px;&quot;&gt;create_at&lt;/span&gt;" style="ellipse;whiteSpace=wrap;html=1;align=center;" parent="1" vertex="1">
          <mxGeometry x="440" y="1940" width="210" height="50" as="geometry" />
        </mxCell>
        <mxCell id="JlgmeeBGbs_2zezeXvUX-93" value="" style="endArrow=none;html=1;rounded=0;" parent="1" source="JlgmeeBGbs_2zezeXvUX-86" target="JlgmeeBGbs_2zezeXvUX-83" edge="1">
          <mxGeometry relative="1" as="geometry">
            <mxPoint x="127.5" y="1700" as="sourcePoint" />
            <mxPoint x="287.5" y="1700" as="targetPoint" />
          </mxGeometry>
        </mxCell>
        <mxCell id="JlgmeeBGbs_2zezeXvUX-94" value="" style="endArrow=none;html=1;rounded=0;" parent="1" source="JlgmeeBGbs_2zezeXvUX-87" target="JlgmeeBGbs_2zezeXvUX-83" edge="1">
          <mxGeometry relative="1" as="geometry">
            <mxPoint x="138.5" y="1831" as="sourcePoint" />
            <mxPoint x="211.5" y="1810" as="targetPoint" />
          </mxGeometry>
        </mxCell>
        <mxCell id="JlgmeeBGbs_2zezeXvUX-95" value="" style="endArrow=none;html=1;rounded=0;" parent="1" source="JlgmeeBGbs_2zezeXvUX-88" target="JlgmeeBGbs_2zezeXvUX-83" edge="1">
          <mxGeometry relative="1" as="geometry">
            <mxPoint x="144.5" y="1741" as="sourcePoint" />
            <mxPoint x="207.5" y="1753" as="targetPoint" />
          </mxGeometry>
        </mxCell>
        <mxCell id="JlgmeeBGbs_2zezeXvUX-96" value="" style="endArrow=none;html=1;rounded=0;" parent="1" source="JlgmeeBGbs_2zezeXvUX-89" target="JlgmeeBGbs_2zezeXvUX-83" edge="1">
          <mxGeometry relative="1" as="geometry">
            <mxPoint x="171.5" y="1638" as="sourcePoint" />
            <mxPoint x="291.5" y="1740" as="targetPoint" />
          </mxGeometry>
        </mxCell>
        <mxCell id="JlgmeeBGbs_2zezeXvUX-97" value="" style="endArrow=none;html=1;rounded=0;" parent="1" source="JlgmeeBGbs_2zezeXvUX-90" target="JlgmeeBGbs_2zezeXvUX-83" edge="1">
          <mxGeometry relative="1" as="geometry">
            <mxPoint x="288.5" y="1580" as="sourcePoint" />
            <mxPoint x="324.5" y="1740" as="targetPoint" />
          </mxGeometry>
        </mxCell>
        <mxCell id="JlgmeeBGbs_2zezeXvUX-99" value="" style="endArrow=none;html=1;rounded=0;" parent="1" source="JlgmeeBGbs_2zezeXvUX-92" target="JlgmeeBGbs_2zezeXvUX-83" edge="1">
          <mxGeometry relative="1" as="geometry">
            <mxPoint x="567.5" y="1658" as="sourcePoint" />
            <mxPoint x="402.5" y="1740" as="targetPoint" />
          </mxGeometry>
        </mxCell>
        <mxCell id="JlgmeeBGbs_2zezeXvUX-101" value="&lt;font style=&quot;font-size: 23px;&quot;&gt;&lt;b&gt;PRINT_JOBS&lt;/b&gt;&lt;/font&gt;" style="rounded=0;whiteSpace=wrap;html=1;" parent="1" vertex="1">
          <mxGeometry x="162.5" y="1130" width="345" height="90" as="geometry" />
        </mxCell>
        <mxCell id="JlgmeeBGbs_2zezeXvUX-102" value="&lt;font style=&quot;font-size: 20px;&quot;&gt;&lt;u style=&quot;&quot;&gt;print_job_id&lt;/u&gt;&lt;/font&gt;" style="ellipse;whiteSpace=wrap;html=1;" parent="1" vertex="1">
          <mxGeometry x="-270" y="935" width="150" height="80" as="geometry" />
        </mxCell>
        <mxCell id="JlgmeeBGbs_2zezeXvUX-106" value="&lt;span style=&quot;font-size: 18px;&quot;&gt;submit_time&lt;/span&gt;" style="ellipse;whiteSpace=wrap;html=1;align=center;" parent="1" vertex="1">
          <mxGeometry x="-450" y="1140" width="140" height="80" as="geometry" />
        </mxCell>
        <mxCell id="JlgmeeBGbs_2zezeXvUX-107" value="&lt;span style=&quot;font-size: 18px;&quot;&gt;print_start_time&lt;/span&gt;" style="ellipse;whiteSpace=wrap;html=1;align=center;" parent="1" vertex="1">
          <mxGeometry x="-560" y="1360" width="155" height="75" as="geometry" />
        </mxCell>
        <mxCell id="JlgmeeBGbs_2zezeXvUX-108" value="&lt;span style=&quot;font-size: 18px;&quot;&gt;print_end_time&lt;/span&gt;" style="ellipse;whiteSpace=wrap;html=1;align=center;" parent="1" vertex="1">
          <mxGeometry x="-430" y="1461" width="155" height="75" as="geometry" />
        </mxCell>
        <mxCell id="JlgmeeBGbs_2zezeXvUX-109" value="&lt;span style=&quot;font-size: 18px;&quot;&gt;total_printed_side&lt;/span&gt;" style="ellipse;whiteSpace=wrap;html=1;align=center;" parent="1" vertex="1">
          <mxGeometry x="-530" y="1250" width="155" height="75" as="geometry" />
        </mxCell>
        <mxCell id="JlgmeeBGbs_2zezeXvUX-110" value="&lt;span style=&quot;font-size: 18px;&quot;&gt;pages_in_A4&lt;/span&gt;" style="ellipse;whiteSpace=wrap;html=1;align=center;" parent="1" vertex="1">
          <mxGeometry x="-270" y="1740" width="155" height="75" as="geometry" />
        </mxCell>
        <mxCell id="JlgmeeBGbs_2zezeXvUX-111" value="&lt;span style=&quot;font-size: 18px;&quot;&gt;pages_in_A3&lt;/span&gt;" style="ellipse;whiteSpace=wrap;html=1;align=center;" parent="1" vertex="1">
          <mxGeometry x="-245" y="1613" width="155" height="75" as="geometry" />
        </mxCell>
        <mxCell id="JlgmeeBGbs_2zezeXvUX-113" value="&lt;font style=&quot;font-size: 22px;&quot;&gt;total_cost_range&lt;/font&gt;" style="ellipse;whiteSpace=wrap;html=1;align=center;dashed=1;" parent="1" vertex="1">
          <mxGeometry x="-465" y="1020" width="195" height="80" as="geometry" />
        </mxCell>
        <mxCell id="JlgmeeBGbs_2zezeXvUX-117" value="" style="endArrow=none;html=1;rounded=0;" parent="1" source="JlgmeeBGbs_2zezeXvUX-102" target="JlgmeeBGbs_2zezeXvUX-101" edge="1">
          <mxGeometry relative="1" as="geometry">
            <mxPoint x="95.5" y="1150" as="sourcePoint" />
            <mxPoint x="255.5" y="1150" as="targetPoint" />
          </mxGeometry>
        </mxCell>
        <mxCell id="JlgmeeBGbs_2zezeXvUX-118" value="" style="endArrow=none;html=1;rounded=0;" parent="1" source="JlgmeeBGbs_2zezeXvUX-106" target="JlgmeeBGbs_2zezeXvUX-101" edge="1">
          <mxGeometry relative="1" as="geometry">
            <mxPoint x="-84.5" y="1214" as="sourcePoint" />
            <mxPoint x="162.5" y="1212" as="targetPoint" />
          </mxGeometry>
        </mxCell>
        <mxCell id="JlgmeeBGbs_2zezeXvUX-119" value="" style="endArrow=none;html=1;rounded=0;" parent="1" source="JlgmeeBGbs_2zezeXvUX-107" target="JlgmeeBGbs_2zezeXvUX-101" edge="1">
          <mxGeometry relative="1" as="geometry">
            <mxPoint x="-87.5" y="1132" as="sourcePoint" />
            <mxPoint x="162.5" y="1178" as="targetPoint" />
          </mxGeometry>
        </mxCell>
        <mxCell id="JlgmeeBGbs_2zezeXvUX-120" value="" style="endArrow=none;html=1;rounded=0;" parent="1" source="JlgmeeBGbs_2zezeXvUX-108" target="JlgmeeBGbs_2zezeXvUX-101" edge="1">
          <mxGeometry relative="1" as="geometry">
            <mxPoint x="-30.5" y="1043" as="sourcePoint" />
            <mxPoint x="236.5" y="1165" as="targetPoint" />
          </mxGeometry>
        </mxCell>
        <mxCell id="JlgmeeBGbs_2zezeXvUX-121" value="" style="endArrow=none;html=1;rounded=0;" parent="1" source="JlgmeeBGbs_2zezeXvUX-109" target="JlgmeeBGbs_2zezeXvUX-101" edge="1">
          <mxGeometry relative="1" as="geometry">
            <mxPoint x="-11.5" y="934" as="sourcePoint" />
            <mxPoint x="278.5" y="1165" as="targetPoint" />
          </mxGeometry>
        </mxCell>
        <mxCell id="JlgmeeBGbs_2zezeXvUX-125" value="" style="endArrow=none;html=1;rounded=0;" parent="1" source="JlgmeeBGbs_2zezeXvUX-113" target="JlgmeeBGbs_2zezeXvUX-101" edge="1">
          <mxGeometry relative="1" as="geometry">
            <mxPoint x="584.5" y="912" as="sourcePoint" />
            <mxPoint x="373.5" y="1165" as="targetPoint" />
          </mxGeometry>
        </mxCell>
        <mxCell id="JlgmeeBGbs_2zezeXvUX-127" value="&lt;font style=&quot;font-size: 26px;&quot;&gt;SUBMIT&lt;/font&gt;" style="shape=rhombus;perimeter=rhombusPerimeter;whiteSpace=wrap;html=1;align=center;" parent="1" vertex="1">
          <mxGeometry x="190" y="750" width="290" height="120" as="geometry" />
        </mxCell>
        <mxCell id="JlgmeeBGbs_2zezeXvUX-128" value="" style="endArrow=none;html=1;rounded=0;entryX=0.5;entryY=0;entryDx=0;entryDy=0;exitX=0.5;exitY=1;exitDx=0;exitDy=0;" parent="1" source="JlgmeeBGbs_2zezeXvUX-12" target="JlgmeeBGbs_2zezeXvUX-127" edge="1">
          <mxGeometry relative="1" as="geometry">
            <mxPoint x="70" y="960" as="sourcePoint" />
            <mxPoint x="230" y="960" as="targetPoint" />
          </mxGeometry>
        </mxCell>
        <mxCell id="JlgmeeBGbs_2zezeXvUX-129" value="1" style="resizable=0;html=1;whiteSpace=wrap;align=right;verticalAlign=bottom;" parent="JlgmeeBGbs_2zezeXvUX-128" connectable="0" vertex="1">
          <mxGeometry x="1" relative="1" as="geometry" />
        </mxCell>
        <mxCell id="JlgmeeBGbs_2zezeXvUX-130" value="" style="shape=link;html=1;rounded=0;entryX=0.5;entryY=1;entryDx=0;entryDy=0;" parent="1" source="JlgmeeBGbs_2zezeXvUX-101" target="JlgmeeBGbs_2zezeXvUX-127" edge="1">
          <mxGeometry relative="1" as="geometry">
            <mxPoint x="80" y="1010" as="sourcePoint" />
            <mxPoint x="240" y="1010" as="targetPoint" />
          </mxGeometry>
        </mxCell>
        <mxCell id="JlgmeeBGbs_2zezeXvUX-131" value="N" style="resizable=0;html=1;whiteSpace=wrap;align=right;verticalAlign=bottom;" parent="JlgmeeBGbs_2zezeXvUX-130" connectable="0" vertex="1">
          <mxGeometry x="1" relative="1" as="geometry" />
        </mxCell>
        <mxCell id="JlgmeeBGbs_2zezeXvUX-134" value="&lt;font style=&quot;font-size: 26px;&quot;&gt;PROCESSES&lt;/font&gt;" style="shape=rhombus;perimeter=rhombusPerimeter;whiteSpace=wrap;html=1;align=center;" parent="1" vertex="1">
          <mxGeometry x="730" y="1120" width="270" height="120" as="geometry" />
        </mxCell>
        <mxCell id="JlgmeeBGbs_2zezeXvUX-135" value="" style="endArrow=none;html=1;rounded=0;entryX=1;entryY=0.5;entryDx=0;entryDy=0;" parent="1" source="JlgmeeBGbs_2zezeXvUX-34" target="JlgmeeBGbs_2zezeXvUX-134" edge="1">
          <mxGeometry relative="1" as="geometry">
            <mxPoint x="970" y="1030" as="sourcePoint" />
            <mxPoint x="1130" y="1030" as="targetPoint" />
          </mxGeometry>
        </mxCell>
        <mxCell id="JlgmeeBGbs_2zezeXvUX-136" value="1" style="resizable=0;html=1;whiteSpace=wrap;align=right;verticalAlign=bottom;" parent="JlgmeeBGbs_2zezeXvUX-135" connectable="0" vertex="1">
          <mxGeometry x="1" relative="1" as="geometry" />
        </mxCell>
        <mxCell id="JlgmeeBGbs_2zezeXvUX-137" value="" style="shape=link;html=1;rounded=0;exitX=1;exitY=0.5;exitDx=0;exitDy=0;entryX=0;entryY=0.5;entryDx=0;entryDy=0;" parent="1" source="JlgmeeBGbs_2zezeXvUX-101" target="JlgmeeBGbs_2zezeXvUX-134" edge="1">
          <mxGeometry relative="1" as="geometry">
            <mxPoint x="590" y="1070" as="sourcePoint" />
            <mxPoint x="750" y="1070" as="targetPoint" />
          </mxGeometry>
        </mxCell>
        <mxCell id="JlgmeeBGbs_2zezeXvUX-138" value="N" style="resizable=0;html=1;whiteSpace=wrap;align=right;verticalAlign=bottom;" parent="JlgmeeBGbs_2zezeXvUX-137" connectable="0" vertex="1">
          <mxGeometry x="1" relative="1" as="geometry" />
        </mxCell>
        <mxCell id="JlgmeeBGbs_2zezeXvUX-139" value="&lt;font style=&quot;font-size: 26px;&quot;&gt;Configure&lt;/font&gt;" style="shape=rhombus;perimeter=rhombusPerimeter;whiteSpace=wrap;html=1;align=center;" parent="1" vertex="1">
          <mxGeometry x="187.5" y="1429" width="270" height="107" as="geometry" />
        </mxCell>
        <mxCell id="JlgmeeBGbs_2zezeXvUX-142" value="" style="shape=link;html=1;rounded=0;exitX=0.453;exitY=1.011;exitDx=0;exitDy=0;exitPerimeter=0;entryX=0.5;entryY=0;entryDx=0;entryDy=0;" parent="1" source="JlgmeeBGbs_2zezeXvUX-101" target="JlgmeeBGbs_2zezeXvUX-139" edge="1">
          <mxGeometry relative="1" as="geometry">
            <mxPoint x="350" y="1350" as="sourcePoint" />
            <mxPoint x="510" y="1350" as="targetPoint" />
          </mxGeometry>
        </mxCell>
        <mxCell id="JlgmeeBGbs_2zezeXvUX-143" value="N" style="resizable=0;html=1;whiteSpace=wrap;align=right;verticalAlign=bottom;" parent="JlgmeeBGbs_2zezeXvUX-142" connectable="0" vertex="1">
          <mxGeometry x="1" relative="1" as="geometry" />
        </mxCell>
        <mxCell id="JlgmeeBGbs_2zezeXvUX-145" value="" style="endArrow=none;html=1;rounded=0;entryX=0.5;entryY=1;entryDx=0;entryDy=0;exitX=0.5;exitY=0;exitDx=0;exitDy=0;" parent="1" source="JlgmeeBGbs_2zezeXvUX-83" target="JlgmeeBGbs_2zezeXvUX-139" edge="1">
          <mxGeometry relative="1" as="geometry">
            <mxPoint x="180" y="1680" as="sourcePoint" />
            <mxPoint x="340" y="1680" as="targetPoint" />
          </mxGeometry>
        </mxCell>
        <mxCell id="JlgmeeBGbs_2zezeXvUX-146" value="1" style="resizable=0;html=1;whiteSpace=wrap;align=right;verticalAlign=bottom;" parent="JlgmeeBGbs_2zezeXvUX-145" connectable="0" vertex="1">
          <mxGeometry x="1" relative="1" as="geometry" />
        </mxCell>
        <mxCell id="JlgmeeBGbs_2zezeXvUX-147" value="&lt;font style=&quot;font-size: 23px;&quot;&gt;&lt;b&gt;TRANSACTION&lt;/b&gt;&lt;/font&gt;" style="rounded=0;whiteSpace=wrap;html=1;" parent="1" vertex="1">
          <mxGeometry x="1295" y="-80" width="220" height="70" as="geometry" />
        </mxCell>
        <mxCell id="JlgmeeBGbs_2zezeXvUX-149" value="&lt;font style=&quot;font-size: 21px;&quot;&gt;&lt;u style=&quot;&quot;&gt;transaction_id&lt;/u&gt;&lt;/font&gt;" style="ellipse;whiteSpace=wrap;html=1;" parent="1" vertex="1">
          <mxGeometry x="1055" y="-190" width="170" height="90" as="geometry" />
        </mxCell>
        <mxCell id="JlgmeeBGbs_2zezeXvUX-151" value="&lt;span style=&quot;font-size: 18px;&quot;&gt;amount_paid&lt;/span&gt;" style="ellipse;whiteSpace=wrap;html=1;align=center;" parent="1" vertex="1">
          <mxGeometry x="1155" y="-290" width="190" height="60" as="geometry" />
        </mxCell>
        <mxCell id="JlgmeeBGbs_2zezeXvUX-152" value="&lt;span style=&quot;font-size: 18px;&quot;&gt;page_purchased&lt;/span&gt;" style="ellipse;whiteSpace=wrap;html=1;align=center;" parent="1" vertex="1">
          <mxGeometry x="1360" y="-340" width="190" height="60" as="geometry" />
        </mxCell>
        <mxCell id="JlgmeeBGbs_2zezeXvUX-153" value="&lt;span style=&quot;font-size: 18px;&quot;&gt;transaction_date&lt;/span&gt;" style="ellipse;whiteSpace=wrap;html=1;align=center;" parent="1" vertex="1">
          <mxGeometry x="1610" y="-300" width="190" height="60" as="geometry" />
        </mxCell>
        <mxCell id="JlgmeeBGbs_2zezeXvUX-154" value="&lt;span style=&quot;font-size: 18px;&quot;&gt;payment_method&lt;/span&gt;" style="ellipse;whiteSpace=wrap;html=1;align=center;" parent="1" vertex="1">
          <mxGeometry x="1740" y="-190" width="190" height="60" as="geometry" />
        </mxCell>
        <mxCell id="JlgmeeBGbs_2zezeXvUX-155" value="&lt;span style=&quot;font-size: 18px;&quot;&gt;transaction_status&lt;/span&gt;" style="ellipse;whiteSpace=wrap;html=1;align=center;" parent="1" vertex="1">
          <mxGeometry x="1760" y="-40" width="190" height="60" as="geometry" />
        </mxCell>
        <mxCell id="JlgmeeBGbs_2zezeXvUX-157" value="&lt;span style=&quot;font-size: 18px;&quot;&gt;create_at&lt;/span&gt;" style="ellipse;whiteSpace=wrap;html=1;align=center;" parent="1" vertex="1">
          <mxGeometry x="1580" y="80" width="190" height="60" as="geometry" />
        </mxCell>
        <mxCell id="JlgmeeBGbs_2zezeXvUX-158" value="" style="endArrow=none;html=1;rounded=0;" parent="1" source="JlgmeeBGbs_2zezeXvUX-149" target="JlgmeeBGbs_2zezeXvUX-147" edge="1">
          <mxGeometry relative="1" as="geometry">
            <mxPoint x="1015" y="-40" as="sourcePoint" />
            <mxPoint x="1175" y="-40" as="targetPoint" />
          </mxGeometry>
        </mxCell>
        <mxCell id="JlgmeeBGbs_2zezeXvUX-159" value="" style="endArrow=none;html=1;rounded=0;" parent="1" source="JlgmeeBGbs_2zezeXvUX-151" target="JlgmeeBGbs_2zezeXvUX-147" edge="1">
          <mxGeometry relative="1" as="geometry">
            <mxPoint x="1171" y="-120" as="sourcePoint" />
            <mxPoint x="1315" y="-70" as="targetPoint" />
          </mxGeometry>
        </mxCell>
        <mxCell id="JlgmeeBGbs_2zezeXvUX-160" value="" style="endArrow=none;html=1;rounded=0;" parent="1" source="JlgmeeBGbs_2zezeXvUX-152" target="JlgmeeBGbs_2zezeXvUX-147" edge="1">
          <mxGeometry relative="1" as="geometry">
            <mxPoint x="1207" y="-281" as="sourcePoint" />
            <mxPoint x="1385" y="-70" as="targetPoint" />
          </mxGeometry>
        </mxCell>
        <mxCell id="JlgmeeBGbs_2zezeXvUX-161" value="" style="endArrow=none;html=1;rounded=0;" parent="1" source="JlgmeeBGbs_2zezeXvUX-153" target="JlgmeeBGbs_2zezeXvUX-147" edge="1">
          <mxGeometry relative="1" as="geometry">
            <mxPoint x="1406" y="-340" as="sourcePoint" />
            <mxPoint x="1414" y="-70" as="targetPoint" />
          </mxGeometry>
        </mxCell>
        <mxCell id="JlgmeeBGbs_2zezeXvUX-162" value="" style="endArrow=none;html=1;rounded=0;" parent="1" source="JlgmeeBGbs_2zezeXvUX-154" target="JlgmeeBGbs_2zezeXvUX-147" edge="1">
          <mxGeometry relative="1" as="geometry">
            <mxPoint x="1632" y="-391" as="sourcePoint" />
            <mxPoint x="1436" y="-70" as="targetPoint" />
          </mxGeometry>
        </mxCell>
        <mxCell id="JlgmeeBGbs_2zezeXvUX-163" value="" style="endArrow=none;html=1;rounded=0;" parent="1" source="JlgmeeBGbs_2zezeXvUX-155" target="JlgmeeBGbs_2zezeXvUX-147" edge="1">
          <mxGeometry relative="1" as="geometry">
            <mxPoint x="1847" y="-343" as="sourcePoint" />
            <mxPoint x="1464" y="-70" as="targetPoint" />
          </mxGeometry>
        </mxCell>
        <mxCell id="JlgmeeBGbs_2zezeXvUX-164" value="" style="endArrow=none;html=1;rounded=0;" parent="1" source="JlgmeeBGbs_2zezeXvUX-157" target="JlgmeeBGbs_2zezeXvUX-147" edge="1">
          <mxGeometry relative="1" as="geometry">
            <mxPoint x="1784" y="-196" as="sourcePoint" />
            <mxPoint x="1495" y="-70" as="targetPoint" />
          </mxGeometry>
        </mxCell>
        <mxCell id="JlgmeeBGbs_2zezeXvUX-166" value="&lt;font style=&quot;font-size: 26px;&quot;&gt;MAKES&lt;/font&gt;" style="shape=rhombus;perimeter=rhombusPerimeter;whiteSpace=wrap;html=1;align=center;" parent="1" vertex="1">
          <mxGeometry x="670" y="160" width="220" height="80" as="geometry" />
        </mxCell>
        <mxCell id="JlgmeeBGbs_2zezeXvUX-168" value="" style="endArrow=none;html=1;rounded=0;exitX=1;exitY=0;exitDx=0;exitDy=0;entryX=0;entryY=0.5;entryDx=0;entryDy=0;" parent="1" source="JlgmeeBGbs_2zezeXvUX-12" target="JlgmeeBGbs_2zezeXvUX-166" edge="1">
          <mxGeometry relative="1" as="geometry">
            <mxPoint x="650" y="370" as="sourcePoint" />
            <mxPoint x="810" y="370" as="targetPoint" />
          </mxGeometry>
        </mxCell>
        <mxCell id="JlgmeeBGbs_2zezeXvUX-169" value="1" style="resizable=0;html=1;whiteSpace=wrap;align=right;verticalAlign=bottom;" parent="JlgmeeBGbs_2zezeXvUX-168" connectable="0" vertex="1">
          <mxGeometry x="1" relative="1" as="geometry" />
        </mxCell>
        <mxCell id="JlgmeeBGbs_2zezeXvUX-170" value="" style="shape=link;html=1;rounded=0;exitX=0;exitY=1;exitDx=0;exitDy=0;entryX=1;entryY=0.5;entryDx=0;entryDy=0;" parent="1" source="JlgmeeBGbs_2zezeXvUX-147" target="JlgmeeBGbs_2zezeXvUX-166" edge="1">
          <mxGeometry relative="1" as="geometry">
            <mxPoint x="840" y="120" as="sourcePoint" />
            <mxPoint x="1000" y="120" as="targetPoint" />
          </mxGeometry>
        </mxCell>
        <mxCell id="JlgmeeBGbs_2zezeXvUX-171" value="N" style="resizable=0;html=1;whiteSpace=wrap;align=right;verticalAlign=bottom;" parent="JlgmeeBGbs_2zezeXvUX-170" connectable="0" vertex="1">
          <mxGeometry x="1" relative="1" as="geometry" />
        </mxCell>
        <mxCell id="JlgmeeBGbs_2zezeXvUX-172" value="&lt;font style=&quot;font-size: 23px;&quot;&gt;&lt;b&gt;PERMITTED_FILE_TYPE&lt;/b&gt;&lt;/font&gt;" style="rounded=0;whiteSpace=wrap;html=1;" parent="1" vertex="1">
          <mxGeometry x="1928" y="530" width="395" height="70" as="geometry" />
        </mxCell>
        <mxCell id="JlgmeeBGbs_2zezeXvUX-173" value="&lt;font style=&quot;font-size: 26px;&quot;&gt;VALIDATE&lt;/font&gt;" style="shape=rhombus;perimeter=rhombusPerimeter;whiteSpace=wrap;html=1;align=center;" parent="1" vertex="1">
          <mxGeometry x="1505" y="522.5" width="210" height="85" as="geometry" />
        </mxCell>
        <mxCell id="JlgmeeBGbs_2zezeXvUX-176" value="" style="shape=link;html=1;rounded=0;exitX=1;exitY=0.5;exitDx=0;exitDy=0;entryX=0;entryY=0.5;entryDx=0;entryDy=0;" parent="1" source="JlgmeeBGbs_2zezeXvUX-59" target="JlgmeeBGbs_2zezeXvUX-173" edge="1">
          <mxGeometry relative="1" as="geometry">
            <mxPoint x="1350" y="470" as="sourcePoint" />
            <mxPoint x="1510" y="470" as="targetPoint" />
          </mxGeometry>
        </mxCell>
        <mxCell id="JlgmeeBGbs_2zezeXvUX-177" value="N" style="resizable=0;html=1;whiteSpace=wrap;align=right;verticalAlign=bottom;" parent="JlgmeeBGbs_2zezeXvUX-176" connectable="0" vertex="1">
          <mxGeometry x="1" relative="1" as="geometry" />
        </mxCell>
        <mxCell id="JlgmeeBGbs_2zezeXvUX-178" value="" style="endArrow=none;html=1;rounded=0;entryX=1;entryY=0.5;entryDx=0;entryDy=0;exitX=0;exitY=0.5;exitDx=0;exitDy=0;" parent="1" source="JlgmeeBGbs_2zezeXvUX-172" target="JlgmeeBGbs_2zezeXvUX-173" edge="1">
          <mxGeometry relative="1" as="geometry">
            <mxPoint x="1850" y="710" as="sourcePoint" />
            <mxPoint x="2010" y="710" as="targetPoint" />
          </mxGeometry>
        </mxCell>
        <mxCell id="JlgmeeBGbs_2zezeXvUX-179" value="1" style="resizable=0;html=1;whiteSpace=wrap;align=right;verticalAlign=bottom;" parent="JlgmeeBGbs_2zezeXvUX-178" connectable="0" vertex="1">
          <mxGeometry x="1" relative="1" as="geometry" />
        </mxCell>
        <mxCell id="JlgmeeBGbs_2zezeXvUX-180" value="&lt;font style=&quot;font-size: 21px;&quot;&gt;&lt;u style=&quot;&quot;&gt;file_type_id&lt;/u&gt;&lt;/font&gt;" style="ellipse;whiteSpace=wrap;html=1;" parent="1" vertex="1">
          <mxGeometry x="1730" y="390" width="150" height="90" as="geometry" />
        </mxCell>
        <mxCell id="JlgmeeBGbs_2zezeXvUX-183" value="&lt;span style=&quot;font-size: 18px;&quot;&gt;mime_type&lt;/span&gt;" style="ellipse;whiteSpace=wrap;html=1;align=center;" parent="1" vertex="1">
          <mxGeometry x="1920" y="380" width="190" height="60" as="geometry" />
        </mxCell>
        <mxCell id="JlgmeeBGbs_2zezeXvUX-184" value="&lt;span style=&quot;font-size: 18px;&quot;&gt;description&lt;/span&gt;" style="ellipse;whiteSpace=wrap;html=1;align=center;" parent="1" vertex="1">
          <mxGeometry x="2110" y="340" width="190" height="60" as="geometry" />
        </mxCell>
        <mxCell id="JlgmeeBGbs_2zezeXvUX-185" value="&lt;span style=&quot;font-size: 18px;&quot;&gt;create_at&lt;/span&gt;" style="ellipse;whiteSpace=wrap;html=1;align=center;" parent="1" vertex="1">
          <mxGeometry x="2270" y="390" width="190" height="60" as="geometry" />
        </mxCell>
        <mxCell id="JlgmeeBGbs_2zezeXvUX-186" value="" style="endArrow=none;html=1;rounded=0;entryX=0;entryY=0;entryDx=0;entryDy=0;" parent="1" source="JlgmeeBGbs_2zezeXvUX-180" target="JlgmeeBGbs_2zezeXvUX-172" edge="1">
          <mxGeometry relative="1" as="geometry">
            <mxPoint x="1970" y="450" as="sourcePoint" />
            <mxPoint x="2130" y="450" as="targetPoint" />
          </mxGeometry>
        </mxCell>
        <mxCell id="JlgmeeBGbs_2zezeXvUX-187" value="" style="endArrow=none;html=1;rounded=0;entryX=0.25;entryY=0;entryDx=0;entryDy=0;" parent="1" source="JlgmeeBGbs_2zezeXvUX-183" target="JlgmeeBGbs_2zezeXvUX-172" edge="1">
          <mxGeometry relative="1" as="geometry">
            <mxPoint x="1837" y="434" as="sourcePoint" />
            <mxPoint x="1938" y="540" as="targetPoint" />
          </mxGeometry>
        </mxCell>
        <mxCell id="JlgmeeBGbs_2zezeXvUX-188" value="" style="endArrow=none;html=1;rounded=0;" parent="1" source="JlgmeeBGbs_2zezeXvUX-184" target="JlgmeeBGbs_2zezeXvUX-172" edge="1">
          <mxGeometry relative="1" as="geometry">
            <mxPoint x="1977" y="290" as="sourcePoint" />
            <mxPoint x="2037" y="540" as="targetPoint" />
          </mxGeometry>
        </mxCell>
        <mxCell id="JlgmeeBGbs_2zezeXvUX-189" value="" style="endArrow=none;html=1;rounded=0;" parent="1" source="JlgmeeBGbs_2zezeXvUX-185" target="JlgmeeBGbs_2zezeXvUX-172" edge="1">
          <mxGeometry relative="1" as="geometry">
            <mxPoint x="2172" y="210" as="sourcePoint" />
            <mxPoint x="2139" y="540" as="targetPoint" />
          </mxGeometry>
        </mxCell>
        <mxCell id="kqIVONm1dLysE9pT50F9-1" value="&lt;font style=&quot;font-size: 18px;&quot;&gt;&lt;u&gt;email&lt;/u&gt;&lt;/font&gt;" style="ellipse;whiteSpace=wrap;html=1;align=center;" parent="1" vertex="1">
          <mxGeometry x="20" y="-390" width="110" height="50" as="geometry" />
        </mxCell>
        <mxCell id="kqIVONm1dLysE9pT50F9-2" value="&lt;font style=&quot;font-size: 18px;&quot;&gt;password&lt;/font&gt;" style="ellipse;whiteSpace=wrap;html=1;align=center;" parent="1" vertex="1">
          <mxGeometry x="90" y="-470" width="110" height="50" as="geometry" />
        </mxCell>
        <mxCell id="kqIVONm1dLysE9pT50F9-3" value="" style="endArrow=none;html=1;rounded=0;entryX=0;entryY=0;entryDx=0;entryDy=0;" parent="1" source="kqIVONm1dLysE9pT50F9-1" target="JlgmeeBGbs_2zezeXvUX-1" edge="1">
          <mxGeometry relative="1" as="geometry">
            <mxPoint x="174" y="-412" as="sourcePoint" />
            <mxPoint x="306" y="-250" as="targetPoint" />
          </mxGeometry>
        </mxCell>
        <mxCell id="kqIVONm1dLysE9pT50F9-4" value="" style="endArrow=none;html=1;rounded=0;" parent="1" source="JlgmeeBGbs_2zezeXvUX-111" target="JlgmeeBGbs_2zezeXvUX-83" edge="1">
          <mxGeometry width="50" height="50" relative="1" as="geometry">
            <mxPoint x="-90" y="1630" as="sourcePoint" />
            <mxPoint x="-40" y="1580" as="targetPoint" />
          </mxGeometry>
        </mxCell>
        <mxCell id="kqIVONm1dLysE9pT50F9-5" value="" style="endArrow=none;html=1;rounded=0;exitX=1;exitY=0;exitDx=0;exitDy=0;" parent="1" source="JlgmeeBGbs_2zezeXvUX-110" target="JlgmeeBGbs_2zezeXvUX-83" edge="1">
          <mxGeometry width="50" height="50" relative="1" as="geometry">
            <mxPoint x="-185" y="1716" as="sourcePoint" />
            <mxPoint x="208" y="1708" as="targetPoint" />
          </mxGeometry>
        </mxCell>
        <mxCell id="kqIVONm1dLysE9pT50F9-24" value="USER" style="shape=table;startSize=30;container=1;collapsible=1;childLayout=tableLayout;fixedRows=1;rowLines=0;fontStyle=1;align=center;resizeLast=1;html=1;" parent="1" vertex="1">
          <mxGeometry x="-2030" y="-720" width="307.5" height="210" as="geometry" />
        </mxCell>
        <mxCell id="kqIVONm1dLysE9pT50F9-37" value="" style="shape=tableRow;horizontal=0;startSize=0;swimlaneHead=0;swimlaneBody=0;fillColor=none;collapsible=0;dropTarget=0;points=[[0,0.5],[1,0.5]];portConstraint=eastwest;top=0;left=0;right=0;bottom=1;" parent="kqIVONm1dLysE9pT50F9-24" vertex="1">
          <mxGeometry y="30" width="307.5" height="30" as="geometry" />
        </mxCell>
        <mxCell id="kqIVONm1dLysE9pT50F9-38" value="PK" style="shape=partialRectangle;connectable=0;fillColor=none;top=0;left=0;bottom=0;right=0;fontStyle=1;overflow=hidden;whiteSpace=wrap;html=1;" parent="kqIVONm1dLysE9pT50F9-37" vertex="1">
          <mxGeometry width="30" height="30" as="geometry">
            <mxRectangle width="30" height="30" as="alternateBounds" />
          </mxGeometry>
        </mxCell>
        <mxCell id="kqIVONm1dLysE9pT50F9-39" value="user_id" style="shape=partialRectangle;connectable=0;fillColor=none;top=0;left=0;bottom=0;right=0;align=left;spacingLeft=6;fontStyle=5;overflow=hidden;whiteSpace=wrap;html=1;" parent="kqIVONm1dLysE9pT50F9-37" vertex="1">
          <mxGeometry x="30" width="277.5" height="30" as="geometry">
            <mxRectangle width="277.5" height="30" as="alternateBounds" />
          </mxGeometry>
        </mxCell>
        <mxCell id="kqIVONm1dLysE9pT50F9-40" value="" style="shape=tableRow;horizontal=0;startSize=0;swimlaneHead=0;swimlaneBody=0;fillColor=none;collapsible=0;dropTarget=0;points=[[0,0.5],[1,0.5]];portConstraint=eastwest;top=0;left=0;right=0;bottom=1;" parent="kqIVONm1dLysE9pT50F9-24" vertex="1">
          <mxGeometry y="60" width="307.5" height="30" as="geometry" />
        </mxCell>
        <mxCell id="kqIVONm1dLysE9pT50F9-41" value="PK" style="shape=partialRectangle;connectable=0;fillColor=none;top=0;left=0;bottom=0;right=0;fontStyle=1;overflow=hidden;whiteSpace=wrap;html=1;" parent="kqIVONm1dLysE9pT50F9-40" vertex="1">
          <mxGeometry width="30" height="30" as="geometry">
            <mxRectangle width="30" height="30" as="alternateBounds" />
          </mxGeometry>
        </mxCell>
        <mxCell id="kqIVONm1dLysE9pT50F9-42" value="email" style="shape=partialRectangle;connectable=0;fillColor=none;top=0;left=0;bottom=0;right=0;align=left;spacingLeft=6;fontStyle=5;overflow=hidden;whiteSpace=wrap;html=1;" parent="kqIVONm1dLysE9pT50F9-40" vertex="1">
          <mxGeometry x="30" width="277.5" height="30" as="geometry">
            <mxRectangle width="277.5" height="30" as="alternateBounds" />
          </mxGeometry>
        </mxCell>
        <mxCell id="kqIVONm1dLysE9pT50F9-25" value="" style="shape=tableRow;horizontal=0;startSize=0;swimlaneHead=0;swimlaneBody=0;fillColor=none;collapsible=0;dropTarget=0;points=[[0,0.5],[1,0.5]];portConstraint=eastwest;top=0;left=0;right=0;bottom=1;" parent="kqIVONm1dLysE9pT50F9-24" vertex="1">
          <mxGeometry y="90" width="307.5" height="30" as="geometry" />
        </mxCell>
        <mxCell id="kqIVONm1dLysE9pT50F9-26" value="PK" style="shape=partialRectangle;connectable=0;fillColor=none;top=0;left=0;bottom=0;right=0;fontStyle=1;overflow=hidden;whiteSpace=wrap;html=1;" parent="kqIVONm1dLysE9pT50F9-25" vertex="1">
          <mxGeometry width="30" height="30" as="geometry">
            <mxRectangle width="30" height="30" as="alternateBounds" />
          </mxGeometry>
        </mxCell>
        <mxCell id="kqIVONm1dLysE9pT50F9-27" value="username" style="shape=partialRectangle;connectable=0;fillColor=none;top=0;left=0;bottom=0;right=0;align=left;spacingLeft=6;fontStyle=5;overflow=hidden;whiteSpace=wrap;html=1;" parent="kqIVONm1dLysE9pT50F9-25" vertex="1">
          <mxGeometry x="30" width="277.5" height="30" as="geometry">
            <mxRectangle width="277.5" height="30" as="alternateBounds" />
          </mxGeometry>
        </mxCell>
        <mxCell id="kqIVONm1dLysE9pT50F9-28" value="" style="shape=tableRow;horizontal=0;startSize=0;swimlaneHead=0;swimlaneBody=0;fillColor=none;collapsible=0;dropTarget=0;points=[[0,0.5],[1,0.5]];portConstraint=eastwest;top=0;left=0;right=0;bottom=0;" parent="kqIVONm1dLysE9pT50F9-24" vertex="1">
          <mxGeometry y="120" width="307.5" height="30" as="geometry" />
        </mxCell>
        <mxCell id="kqIVONm1dLysE9pT50F9-29" value="" style="shape=partialRectangle;connectable=0;fillColor=none;top=0;left=0;bottom=0;right=0;editable=1;overflow=hidden;whiteSpace=wrap;html=1;" parent="kqIVONm1dLysE9pT50F9-28" vertex="1">
          <mxGeometry width="30" height="30" as="geometry">
            <mxRectangle width="30" height="30" as="alternateBounds" />
          </mxGeometry>
        </mxCell>
        <mxCell id="kqIVONm1dLysE9pT50F9-30" value="password" style="shape=partialRectangle;connectable=0;fillColor=none;top=0;left=0;bottom=0;right=0;align=left;spacingLeft=6;overflow=hidden;whiteSpace=wrap;html=1;" parent="kqIVONm1dLysE9pT50F9-28" vertex="1">
          <mxGeometry x="30" width="277.5" height="30" as="geometry">
            <mxRectangle width="277.5" height="30" as="alternateBounds" />
          </mxGeometry>
        </mxCell>
        <mxCell id="kqIVONm1dLysE9pT50F9-31" value="" style="shape=tableRow;horizontal=0;startSize=0;swimlaneHead=0;swimlaneBody=0;fillColor=none;collapsible=0;dropTarget=0;points=[[0,0.5],[1,0.5]];portConstraint=eastwest;top=0;left=0;right=0;bottom=0;" parent="kqIVONm1dLysE9pT50F9-24" vertex="1">
          <mxGeometry y="150" width="307.5" height="30" as="geometry" />
        </mxCell>
        <mxCell id="kqIVONm1dLysE9pT50F9-32" value="" style="shape=partialRectangle;connectable=0;fillColor=none;top=0;left=0;bottom=0;right=0;editable=1;overflow=hidden;whiteSpace=wrap;html=1;" parent="kqIVONm1dLysE9pT50F9-31" vertex="1">
          <mxGeometry width="30" height="30" as="geometry">
            <mxRectangle width="30" height="30" as="alternateBounds" />
          </mxGeometry>
        </mxCell>
        <mxCell id="kqIVONm1dLysE9pT50F9-33" value="role" style="shape=partialRectangle;connectable=0;fillColor=none;top=0;left=0;bottom=0;right=0;align=left;spacingLeft=6;overflow=hidden;whiteSpace=wrap;html=1;" parent="kqIVONm1dLysE9pT50F9-31" vertex="1">
          <mxGeometry x="30" width="277.5" height="30" as="geometry">
            <mxRectangle width="277.5" height="30" as="alternateBounds" />
          </mxGeometry>
        </mxCell>
        <mxCell id="kqIVONm1dLysE9pT50F9-34" value="" style="shape=tableRow;horizontal=0;startSize=0;swimlaneHead=0;swimlaneBody=0;fillColor=none;collapsible=0;dropTarget=0;points=[[0,0.5],[1,0.5]];portConstraint=eastwest;top=0;left=0;right=0;bottom=0;" parent="kqIVONm1dLysE9pT50F9-24" vertex="1">
          <mxGeometry y="180" width="307.5" height="30" as="geometry" />
        </mxCell>
        <mxCell id="kqIVONm1dLysE9pT50F9-35" value="" style="shape=partialRectangle;connectable=0;fillColor=none;top=0;left=0;bottom=0;right=0;editable=1;overflow=hidden;whiteSpace=wrap;html=1;" parent="kqIVONm1dLysE9pT50F9-34" vertex="1">
          <mxGeometry width="30" height="30" as="geometry">
            <mxRectangle width="30" height="30" as="alternateBounds" />
          </mxGeometry>
        </mxCell>
        <mxCell id="kqIVONm1dLysE9pT50F9-36" value="create_at" style="shape=partialRectangle;connectable=0;fillColor=none;top=0;left=0;bottom=0;right=0;align=left;spacingLeft=6;overflow=hidden;whiteSpace=wrap;html=1;" parent="kqIVONm1dLysE9pT50F9-34" vertex="1">
          <mxGeometry x="30" width="277.5" height="30" as="geometry">
            <mxRectangle width="277.5" height="30" as="alternateBounds" />
          </mxGeometry>
        </mxCell>
        <mxCell id="kqIVONm1dLysE9pT50F9-43" value="STUDENT" style="shape=table;startSize=30;container=1;collapsible=1;childLayout=tableLayout;fixedRows=1;rowLines=0;fontStyle=1;align=center;resizeLast=1;html=1;" parent="1" vertex="1">
          <mxGeometry x="-2170" y="-460" width="189.99999999999977" height="210" as="geometry" />
        </mxCell>
        <mxCell id="kqIVONm1dLysE9pT50F9-56" value="" style="shape=tableRow;horizontal=0;startSize=0;swimlaneHead=0;swimlaneBody=0;fillColor=none;collapsible=0;dropTarget=0;points=[[0,0.5],[1,0.5]];portConstraint=eastwest;top=0;left=0;right=0;bottom=1;" parent="kqIVONm1dLysE9pT50F9-43" vertex="1">
          <mxGeometry y="30" width="189.99999999999977" height="30" as="geometry" />
        </mxCell>
        <mxCell id="kqIVONm1dLysE9pT50F9-57" value="FK" style="shape=partialRectangle;connectable=0;fillColor=none;top=0;left=0;bottom=0;right=0;fontStyle=1;overflow=hidden;whiteSpace=wrap;html=1;" parent="kqIVONm1dLysE9pT50F9-56" vertex="1">
          <mxGeometry width="30" height="30" as="geometry">
            <mxRectangle width="30" height="30" as="alternateBounds" />
          </mxGeometry>
        </mxCell>
        <mxCell id="kqIVONm1dLysE9pT50F9-58" value="user_id" style="shape=partialRectangle;connectable=0;fillColor=none;top=0;left=0;bottom=0;right=0;align=left;spacingLeft=6;fontStyle=5;overflow=hidden;whiteSpace=wrap;html=1;" parent="kqIVONm1dLysE9pT50F9-56" vertex="1">
          <mxGeometry x="30" width="159.99999999999977" height="30" as="geometry">
            <mxRectangle width="159.99999999999977" height="30" as="alternateBounds" />
          </mxGeometry>
        </mxCell>
        <mxCell id="yPePk5AXQ9-rEXU3vP_E-68" value="" style="shape=tableRow;horizontal=0;startSize=0;swimlaneHead=0;swimlaneBody=0;fillColor=none;collapsible=0;dropTarget=0;points=[[0,0.5],[1,0.5]];portConstraint=eastwest;top=0;left=0;right=0;bottom=1;" vertex="1" parent="kqIVONm1dLysE9pT50F9-43">
          <mxGeometry y="60" width="189.99999999999977" height="30" as="geometry" />
        </mxCell>
        <mxCell id="yPePk5AXQ9-rEXU3vP_E-69" value="FK" style="shape=partialRectangle;connectable=0;fillColor=none;top=0;left=0;bottom=0;right=0;fontStyle=1;overflow=hidden;whiteSpace=wrap;html=1;" vertex="1" parent="yPePk5AXQ9-rEXU3vP_E-68">
          <mxGeometry width="30" height="30" as="geometry">
            <mxRectangle width="30" height="30" as="alternateBounds" />
          </mxGeometry>
        </mxCell>
        <mxCell id="yPePk5AXQ9-rEXU3vP_E-70" value="allocation_id" style="shape=partialRectangle;connectable=0;fillColor=none;top=0;left=0;bottom=0;right=0;align=left;spacingLeft=6;fontStyle=5;overflow=hidden;whiteSpace=wrap;html=1;" vertex="1" parent="yPePk5AXQ9-rEXU3vP_E-68">
          <mxGeometry x="30" width="159.99999999999977" height="30" as="geometry">
            <mxRectangle width="159.99999999999977" height="30" as="alternateBounds" />
          </mxGeometry>
        </mxCell>
        <mxCell id="kqIVONm1dLysE9pT50F9-44" value="" style="shape=tableRow;horizontal=0;startSize=0;swimlaneHead=0;swimlaneBody=0;fillColor=none;collapsible=0;dropTarget=0;points=[[0,0.5],[1,0.5]];portConstraint=eastwest;top=0;left=0;right=0;bottom=1;" parent="kqIVONm1dLysE9pT50F9-43" vertex="1">
          <mxGeometry y="90" width="189.99999999999977" height="30" as="geometry" />
        </mxCell>
        <mxCell id="kqIVONm1dLysE9pT50F9-45" value="PK" style="shape=partialRectangle;connectable=0;fillColor=none;top=0;left=0;bottom=0;right=0;fontStyle=1;overflow=hidden;whiteSpace=wrap;html=1;" parent="kqIVONm1dLysE9pT50F9-44" vertex="1">
          <mxGeometry width="30" height="30" as="geometry">
            <mxRectangle width="30" height="30" as="alternateBounds" />
          </mxGeometry>
        </mxCell>
        <mxCell id="kqIVONm1dLysE9pT50F9-46" value="student_id" style="shape=partialRectangle;connectable=0;fillColor=none;top=0;left=0;bottom=0;right=0;align=left;spacingLeft=6;fontStyle=5;overflow=hidden;whiteSpace=wrap;html=1;" parent="kqIVONm1dLysE9pT50F9-44" vertex="1">
          <mxGeometry x="30" width="159.99999999999977" height="30" as="geometry">
            <mxRectangle width="159.99999999999977" height="30" as="alternateBounds" />
          </mxGeometry>
        </mxCell>
        <mxCell id="kqIVONm1dLysE9pT50F9-47" value="" style="shape=tableRow;horizontal=0;startSize=0;swimlaneHead=0;swimlaneBody=0;fillColor=none;collapsible=0;dropTarget=0;points=[[0,0.5],[1,0.5]];portConstraint=eastwest;top=0;left=0;right=0;bottom=0;" parent="kqIVONm1dLysE9pT50F9-43" vertex="1">
          <mxGeometry y="120" width="189.99999999999977" height="30" as="geometry" />
        </mxCell>
        <mxCell id="kqIVONm1dLysE9pT50F9-48" value="" style="shape=partialRectangle;connectable=0;fillColor=none;top=0;left=0;bottom=0;right=0;editable=1;overflow=hidden;whiteSpace=wrap;html=1;" parent="kqIVONm1dLysE9pT50F9-47" vertex="1">
          <mxGeometry width="30" height="30" as="geometry">
            <mxRectangle width="30" height="30" as="alternateBounds" />
          </mxGeometry>
        </mxCell>
        <mxCell id="kqIVONm1dLysE9pT50F9-49" value="default_page_allocation" style="shape=partialRectangle;connectable=0;fillColor=none;top=0;left=0;bottom=0;right=0;align=left;spacingLeft=6;overflow=hidden;whiteSpace=wrap;html=1;" parent="kqIVONm1dLysE9pT50F9-47" vertex="1">
          <mxGeometry x="30" width="159.99999999999977" height="30" as="geometry">
            <mxRectangle width="159.99999999999977" height="30" as="alternateBounds" />
          </mxGeometry>
        </mxCell>
        <mxCell id="kqIVONm1dLysE9pT50F9-50" value="" style="shape=tableRow;horizontal=0;startSize=0;swimlaneHead=0;swimlaneBody=0;fillColor=none;collapsible=0;dropTarget=0;points=[[0,0.5],[1,0.5]];portConstraint=eastwest;top=0;left=0;right=0;bottom=0;" parent="kqIVONm1dLysE9pT50F9-43" vertex="1">
          <mxGeometry y="150" width="189.99999999999977" height="30" as="geometry" />
        </mxCell>
        <mxCell id="kqIVONm1dLysE9pT50F9-51" value="" style="shape=partialRectangle;connectable=0;fillColor=none;top=0;left=0;bottom=0;right=0;editable=1;overflow=hidden;whiteSpace=wrap;html=1;" parent="kqIVONm1dLysE9pT50F9-50" vertex="1">
          <mxGeometry width="30" height="30" as="geometry">
            <mxRectangle width="30" height="30" as="alternateBounds" />
          </mxGeometry>
        </mxCell>
        <mxCell id="kqIVONm1dLysE9pT50F9-52" value="page_balance" style="shape=partialRectangle;connectable=0;fillColor=none;top=0;left=0;bottom=0;right=0;align=left;spacingLeft=6;overflow=hidden;whiteSpace=wrap;html=1;" parent="kqIVONm1dLysE9pT50F9-50" vertex="1">
          <mxGeometry x="30" width="159.99999999999977" height="30" as="geometry">
            <mxRectangle width="159.99999999999977" height="30" as="alternateBounds" />
          </mxGeometry>
        </mxCell>
        <mxCell id="kqIVONm1dLysE9pT50F9-53" value="" style="shape=tableRow;horizontal=0;startSize=0;swimlaneHead=0;swimlaneBody=0;fillColor=none;collapsible=0;dropTarget=0;points=[[0,0.5],[1,0.5]];portConstraint=eastwest;top=0;left=0;right=0;bottom=0;" parent="kqIVONm1dLysE9pT50F9-43" vertex="1">
          <mxGeometry y="180" width="189.99999999999977" height="30" as="geometry" />
        </mxCell>
        <mxCell id="kqIVONm1dLysE9pT50F9-54" value="" style="shape=partialRectangle;connectable=0;fillColor=none;top=0;left=0;bottom=0;right=0;editable=1;overflow=hidden;whiteSpace=wrap;html=1;" parent="kqIVONm1dLysE9pT50F9-53" vertex="1">
          <mxGeometry width="30" height="30" as="geometry">
            <mxRectangle width="30" height="30" as="alternateBounds" />
          </mxGeometry>
        </mxCell>
        <mxCell id="kqIVONm1dLysE9pT50F9-55" value="" style="shape=partialRectangle;connectable=0;fillColor=none;top=0;left=0;bottom=0;right=0;align=left;spacingLeft=6;overflow=hidden;whiteSpace=wrap;html=1;" parent="kqIVONm1dLysE9pT50F9-53" vertex="1">
          <mxGeometry x="30" width="159.99999999999977" height="30" as="geometry">
            <mxRectangle width="159.99999999999977" height="30" as="alternateBounds" />
          </mxGeometry>
        </mxCell>
        <mxCell id="kqIVONm1dLysE9pT50F9-59" value="" style="endArrow=classic;html=1;rounded=0;exitX=0;exitY=0.5;exitDx=0;exitDy=0;entryX=0;entryY=0.5;entryDx=0;entryDy=0;edgeStyle=orthogonalEdgeStyle;curved=1;" parent="1" source="kqIVONm1dLysE9pT50F9-56" target="kqIVONm1dLysE9pT50F9-37" edge="1">
          <mxGeometry width="50" height="50" relative="1" as="geometry">
            <mxPoint x="-2220" y="-500" as="sourcePoint" />
            <mxPoint x="-2170" y="-550" as="targetPoint" />
            <Array as="points">
              <mxPoint x="-2220" y="-415" />
              <mxPoint x="-2220" y="-680" />
              <mxPoint x="-2030" y="-680" />
            </Array>
          </mxGeometry>
        </mxCell>
        <mxCell id="kqIVONm1dLysE9pT50F9-60" value="TRANSACTION" style="shape=table;startSize=30;container=1;collapsible=1;childLayout=tableLayout;fixedRows=1;rowLines=0;fontStyle=1;align=center;resizeLast=1;html=1;" parent="1" vertex="1">
          <mxGeometry x="-1930" y="-245" width="190" height="210" as="geometry" />
        </mxCell>
        <mxCell id="kqIVONm1dLysE9pT50F9-76" value="" style="shape=tableRow;horizontal=0;startSize=0;swimlaneHead=0;swimlaneBody=0;fillColor=none;collapsible=0;dropTarget=0;points=[[0,0.5],[1,0.5]];portConstraint=eastwest;top=0;left=0;right=0;bottom=1;" parent="kqIVONm1dLysE9pT50F9-60" vertex="1">
          <mxGeometry y="30" width="190" height="30" as="geometry" />
        </mxCell>
        <mxCell id="kqIVONm1dLysE9pT50F9-77" value="PK" style="shape=partialRectangle;connectable=0;fillColor=none;top=0;left=0;bottom=0;right=0;fontStyle=1;overflow=hidden;whiteSpace=wrap;html=1;" parent="kqIVONm1dLysE9pT50F9-76" vertex="1">
          <mxGeometry width="30" height="30" as="geometry">
            <mxRectangle width="30" height="30" as="alternateBounds" />
          </mxGeometry>
        </mxCell>
        <mxCell id="kqIVONm1dLysE9pT50F9-78" value="transaction_id" style="shape=partialRectangle;connectable=0;fillColor=none;top=0;left=0;bottom=0;right=0;align=left;spacingLeft=6;fontStyle=5;overflow=hidden;whiteSpace=wrap;html=1;" parent="kqIVONm1dLysE9pT50F9-76" vertex="1">
          <mxGeometry x="30" width="160" height="30" as="geometry">
            <mxRectangle width="160" height="30" as="alternateBounds" />
          </mxGeometry>
        </mxCell>
        <mxCell id="kqIVONm1dLysE9pT50F9-61" value="" style="shape=tableRow;horizontal=0;startSize=0;swimlaneHead=0;swimlaneBody=0;fillColor=none;collapsible=0;dropTarget=0;points=[[0,0.5],[1,0.5]];portConstraint=eastwest;top=0;left=0;right=0;bottom=1;" parent="kqIVONm1dLysE9pT50F9-60" vertex="1">
          <mxGeometry y="60" width="190" height="30" as="geometry" />
        </mxCell>
        <mxCell id="kqIVONm1dLysE9pT50F9-62" value="FK" style="shape=partialRectangle;connectable=0;fillColor=none;top=0;left=0;bottom=0;right=0;fontStyle=1;overflow=hidden;whiteSpace=wrap;html=1;" parent="kqIVONm1dLysE9pT50F9-61" vertex="1">
          <mxGeometry width="30" height="30" as="geometry">
            <mxRectangle width="30" height="30" as="alternateBounds" />
          </mxGeometry>
        </mxCell>
        <mxCell id="kqIVONm1dLysE9pT50F9-63" value="student_id" style="shape=partialRectangle;connectable=0;fillColor=none;top=0;left=0;bottom=0;right=0;align=left;spacingLeft=6;fontStyle=5;overflow=hidden;whiteSpace=wrap;html=1;" parent="kqIVONm1dLysE9pT50F9-61" vertex="1">
          <mxGeometry x="30" width="160" height="30" as="geometry">
            <mxRectangle width="160" height="30" as="alternateBounds" />
          </mxGeometry>
        </mxCell>
        <mxCell id="kqIVONm1dLysE9pT50F9-64" value="" style="shape=tableRow;horizontal=0;startSize=0;swimlaneHead=0;swimlaneBody=0;fillColor=none;collapsible=0;dropTarget=0;points=[[0,0.5],[1,0.5]];portConstraint=eastwest;top=0;left=0;right=0;bottom=0;" parent="kqIVONm1dLysE9pT50F9-60" vertex="1">
          <mxGeometry y="90" width="190" height="30" as="geometry" />
        </mxCell>
        <mxCell id="kqIVONm1dLysE9pT50F9-65" value="" style="shape=partialRectangle;connectable=0;fillColor=none;top=0;left=0;bottom=0;right=0;editable=1;overflow=hidden;whiteSpace=wrap;html=1;" parent="kqIVONm1dLysE9pT50F9-64" vertex="1">
          <mxGeometry width="30" height="30" as="geometry">
            <mxRectangle width="30" height="30" as="alternateBounds" />
          </mxGeometry>
        </mxCell>
        <mxCell id="kqIVONm1dLysE9pT50F9-66" value="amount_paid" style="shape=partialRectangle;connectable=0;fillColor=none;top=0;left=0;bottom=0;right=0;align=left;spacingLeft=6;overflow=hidden;whiteSpace=wrap;html=1;" parent="kqIVONm1dLysE9pT50F9-64" vertex="1">
          <mxGeometry x="30" width="160" height="30" as="geometry">
            <mxRectangle width="160" height="30" as="alternateBounds" />
          </mxGeometry>
        </mxCell>
        <mxCell id="kqIVONm1dLysE9pT50F9-67" value="" style="shape=tableRow;horizontal=0;startSize=0;swimlaneHead=0;swimlaneBody=0;fillColor=none;collapsible=0;dropTarget=0;points=[[0,0.5],[1,0.5]];portConstraint=eastwest;top=0;left=0;right=0;bottom=0;" parent="kqIVONm1dLysE9pT50F9-60" vertex="1">
          <mxGeometry y="120" width="190" height="30" as="geometry" />
        </mxCell>
        <mxCell id="kqIVONm1dLysE9pT50F9-68" value="" style="shape=partialRectangle;connectable=0;fillColor=none;top=0;left=0;bottom=0;right=0;editable=1;overflow=hidden;whiteSpace=wrap;html=1;" parent="kqIVONm1dLysE9pT50F9-67" vertex="1">
          <mxGeometry width="30" height="30" as="geometry">
            <mxRectangle width="30" height="30" as="alternateBounds" />
          </mxGeometry>
        </mxCell>
        <mxCell id="kqIVONm1dLysE9pT50F9-69" value="transaction_date" style="shape=partialRectangle;connectable=0;fillColor=none;top=0;left=0;bottom=0;right=0;align=left;spacingLeft=6;overflow=hidden;whiteSpace=wrap;html=1;" parent="kqIVONm1dLysE9pT50F9-67" vertex="1">
          <mxGeometry x="30" width="160" height="30" as="geometry">
            <mxRectangle width="160" height="30" as="alternateBounds" />
          </mxGeometry>
        </mxCell>
        <mxCell id="kqIVONm1dLysE9pT50F9-70" value="" style="shape=tableRow;horizontal=0;startSize=0;swimlaneHead=0;swimlaneBody=0;fillColor=none;collapsible=0;dropTarget=0;points=[[0,0.5],[1,0.5]];portConstraint=eastwest;top=0;left=0;right=0;bottom=0;" parent="kqIVONm1dLysE9pT50F9-60" vertex="1">
          <mxGeometry y="150" width="190" height="30" as="geometry" />
        </mxCell>
        <mxCell id="kqIVONm1dLysE9pT50F9-71" value="" style="shape=partialRectangle;connectable=0;fillColor=none;top=0;left=0;bottom=0;right=0;editable=1;overflow=hidden;whiteSpace=wrap;html=1;" parent="kqIVONm1dLysE9pT50F9-70" vertex="1">
          <mxGeometry width="30" height="30" as="geometry">
            <mxRectangle width="30" height="30" as="alternateBounds" />
          </mxGeometry>
        </mxCell>
        <mxCell id="kqIVONm1dLysE9pT50F9-72" value="payment_method" style="shape=partialRectangle;connectable=0;fillColor=none;top=0;left=0;bottom=0;right=0;align=left;spacingLeft=6;overflow=hidden;whiteSpace=wrap;html=1;" parent="kqIVONm1dLysE9pT50F9-70" vertex="1">
          <mxGeometry x="30" width="160" height="30" as="geometry">
            <mxRectangle width="160" height="30" as="alternateBounds" />
          </mxGeometry>
        </mxCell>
        <mxCell id="kqIVONm1dLysE9pT50F9-79" value="" style="shape=tableRow;horizontal=0;startSize=0;swimlaneHead=0;swimlaneBody=0;fillColor=none;collapsible=0;dropTarget=0;points=[[0,0.5],[1,0.5]];portConstraint=eastwest;top=0;left=0;right=0;bottom=0;" parent="kqIVONm1dLysE9pT50F9-60" vertex="1">
          <mxGeometry y="180" width="190" height="30" as="geometry" />
        </mxCell>
        <mxCell id="kqIVONm1dLysE9pT50F9-80" value="" style="shape=partialRectangle;connectable=0;fillColor=none;top=0;left=0;bottom=0;right=0;editable=1;overflow=hidden;" parent="kqIVONm1dLysE9pT50F9-79" vertex="1">
          <mxGeometry width="30" height="30" as="geometry">
            <mxRectangle width="30" height="30" as="alternateBounds" />
          </mxGeometry>
        </mxCell>
        <mxCell id="kqIVONm1dLysE9pT50F9-81" value="" style="shape=partialRectangle;connectable=0;fillColor=none;top=0;left=0;bottom=0;right=0;align=left;spacingLeft=6;overflow=hidden;" parent="kqIVONm1dLysE9pT50F9-79" vertex="1">
          <mxGeometry x="30" width="160" height="30" as="geometry">
            <mxRectangle width="160" height="30" as="alternateBounds" />
          </mxGeometry>
        </mxCell>
        <mxCell id="kqIVONm1dLysE9pT50F9-86" value="FILE" style="shape=table;startSize=30;container=1;collapsible=1;childLayout=tableLayout;fixedRows=1;rowLines=0;fontStyle=1;align=center;resizeLast=1;html=1;" parent="1" vertex="1">
          <mxGeometry x="-1445" y="-140" width="180" height="270" as="geometry" />
        </mxCell>
        <mxCell id="kqIVONm1dLysE9pT50F9-99" value="" style="shape=tableRow;horizontal=0;startSize=0;swimlaneHead=0;swimlaneBody=0;fillColor=none;collapsible=0;dropTarget=0;points=[[0,0.5],[1,0.5]];portConstraint=eastwest;top=0;left=0;right=0;bottom=1;" parent="kqIVONm1dLysE9pT50F9-86" vertex="1">
          <mxGeometry y="30" width="180" height="30" as="geometry" />
        </mxCell>
        <mxCell id="kqIVONm1dLysE9pT50F9-100" value="PK" style="shape=partialRectangle;connectable=0;fillColor=none;top=0;left=0;bottom=0;right=0;fontStyle=1;overflow=hidden;whiteSpace=wrap;html=1;" parent="kqIVONm1dLysE9pT50F9-99" vertex="1">
          <mxGeometry width="30" height="30" as="geometry">
            <mxRectangle width="30" height="30" as="alternateBounds" />
          </mxGeometry>
        </mxCell>
        <mxCell id="kqIVONm1dLysE9pT50F9-101" value="file_id" style="shape=partialRectangle;connectable=0;fillColor=none;top=0;left=0;bottom=0;right=0;align=left;spacingLeft=6;fontStyle=5;overflow=hidden;whiteSpace=wrap;html=1;" parent="kqIVONm1dLysE9pT50F9-99" vertex="1">
          <mxGeometry x="30" width="150" height="30" as="geometry">
            <mxRectangle width="150" height="30" as="alternateBounds" />
          </mxGeometry>
        </mxCell>
        <mxCell id="kqIVONm1dLysE9pT50F9-122" value="" style="shape=tableRow;horizontal=0;startSize=0;swimlaneHead=0;swimlaneBody=0;fillColor=none;collapsible=0;dropTarget=0;points=[[0,0.5],[1,0.5]];portConstraint=eastwest;top=0;left=0;right=0;bottom=1;" parent="kqIVONm1dLysE9pT50F9-86" vertex="1">
          <mxGeometry y="60" width="180" height="30" as="geometry" />
        </mxCell>
        <mxCell id="kqIVONm1dLysE9pT50F9-123" value="FK" style="shape=partialRectangle;connectable=0;fillColor=none;top=0;left=0;bottom=0;right=0;fontStyle=1;overflow=hidden;whiteSpace=wrap;html=1;" parent="kqIVONm1dLysE9pT50F9-122" vertex="1">
          <mxGeometry width="30" height="30" as="geometry">
            <mxRectangle width="30" height="30" as="alternateBounds" />
          </mxGeometry>
        </mxCell>
        <mxCell id="kqIVONm1dLysE9pT50F9-124" value="student_id" style="shape=partialRectangle;connectable=0;fillColor=none;top=0;left=0;bottom=0;right=0;align=left;spacingLeft=6;fontStyle=5;overflow=hidden;whiteSpace=wrap;html=1;" parent="kqIVONm1dLysE9pT50F9-122" vertex="1">
          <mxGeometry x="30" width="150" height="30" as="geometry">
            <mxRectangle width="150" height="30" as="alternateBounds" />
          </mxGeometry>
        </mxCell>
        <mxCell id="kqIVONm1dLysE9pT50F9-87" value="" style="shape=tableRow;horizontal=0;startSize=0;swimlaneHead=0;swimlaneBody=0;fillColor=none;collapsible=0;dropTarget=0;points=[[0,0.5],[1,0.5]];portConstraint=eastwest;top=0;left=0;right=0;bottom=1;" parent="kqIVONm1dLysE9pT50F9-86" vertex="1">
          <mxGeometry y="90" width="180" height="30" as="geometry" />
        </mxCell>
        <mxCell id="kqIVONm1dLysE9pT50F9-88" value="FK" style="shape=partialRectangle;connectable=0;fillColor=none;top=0;left=0;bottom=0;right=0;fontStyle=1;overflow=hidden;whiteSpace=wrap;html=1;" parent="kqIVONm1dLysE9pT50F9-87" vertex="1">
          <mxGeometry width="30" height="30" as="geometry">
            <mxRectangle width="30" height="30" as="alternateBounds" />
          </mxGeometry>
        </mxCell>
        <mxCell id="kqIVONm1dLysE9pT50F9-89" value="file_type_id" style="shape=partialRectangle;connectable=0;fillColor=none;top=0;left=0;bottom=0;right=0;align=left;spacingLeft=6;fontStyle=5;overflow=hidden;whiteSpace=wrap;html=1;" parent="kqIVONm1dLysE9pT50F9-87" vertex="1">
          <mxGeometry x="30" width="150" height="30" as="geometry">
            <mxRectangle width="150" height="30" as="alternateBounds" />
          </mxGeometry>
        </mxCell>
        <mxCell id="kqIVONm1dLysE9pT50F9-90" value="" style="shape=tableRow;horizontal=0;startSize=0;swimlaneHead=0;swimlaneBody=0;fillColor=none;collapsible=0;dropTarget=0;points=[[0,0.5],[1,0.5]];portConstraint=eastwest;top=0;left=0;right=0;bottom=0;" parent="kqIVONm1dLysE9pT50F9-86" vertex="1">
          <mxGeometry y="120" width="180" height="30" as="geometry" />
        </mxCell>
        <mxCell id="kqIVONm1dLysE9pT50F9-91" value="" style="shape=partialRectangle;connectable=0;fillColor=none;top=0;left=0;bottom=0;right=0;editable=1;overflow=hidden;whiteSpace=wrap;html=1;" parent="kqIVONm1dLysE9pT50F9-90" vertex="1">
          <mxGeometry width="30" height="30" as="geometry">
            <mxRectangle width="30" height="30" as="alternateBounds" />
          </mxGeometry>
        </mxCell>
        <mxCell id="kqIVONm1dLysE9pT50F9-92" value="file_path" style="shape=partialRectangle;connectable=0;fillColor=none;top=0;left=0;bottom=0;right=0;align=left;spacingLeft=6;overflow=hidden;whiteSpace=wrap;html=1;" parent="kqIVONm1dLysE9pT50F9-90" vertex="1">
          <mxGeometry x="30" width="150" height="30" as="geometry">
            <mxRectangle width="150" height="30" as="alternateBounds" />
          </mxGeometry>
        </mxCell>
        <mxCell id="kqIVONm1dLysE9pT50F9-93" value="" style="shape=tableRow;horizontal=0;startSize=0;swimlaneHead=0;swimlaneBody=0;fillColor=none;collapsible=0;dropTarget=0;points=[[0,0.5],[1,0.5]];portConstraint=eastwest;top=0;left=0;right=0;bottom=0;" parent="kqIVONm1dLysE9pT50F9-86" vertex="1">
          <mxGeometry y="150" width="180" height="30" as="geometry" />
        </mxCell>
        <mxCell id="kqIVONm1dLysE9pT50F9-94" value="" style="shape=partialRectangle;connectable=0;fillColor=none;top=0;left=0;bottom=0;right=0;editable=1;overflow=hidden;whiteSpace=wrap;html=1;" parent="kqIVONm1dLysE9pT50F9-93" vertex="1">
          <mxGeometry width="30" height="30" as="geometry">
            <mxRectangle width="30" height="30" as="alternateBounds" />
          </mxGeometry>
        </mxCell>
        <mxCell id="kqIVONm1dLysE9pT50F9-95" value="filename" style="shape=partialRectangle;connectable=0;fillColor=none;top=0;left=0;bottom=0;right=0;align=left;spacingLeft=6;overflow=hidden;whiteSpace=wrap;html=1;" parent="kqIVONm1dLysE9pT50F9-93" vertex="1">
          <mxGeometry x="30" width="150" height="30" as="geometry">
            <mxRectangle width="150" height="30" as="alternateBounds" />
          </mxGeometry>
        </mxCell>
        <mxCell id="kqIVONm1dLysE9pT50F9-102" value="" style="shape=tableRow;horizontal=0;startSize=0;swimlaneHead=0;swimlaneBody=0;fillColor=none;collapsible=0;dropTarget=0;points=[[0,0.5],[1,0.5]];portConstraint=eastwest;top=0;left=0;right=0;bottom=0;" parent="kqIVONm1dLysE9pT50F9-86" vertex="1">
          <mxGeometry y="180" width="180" height="30" as="geometry" />
        </mxCell>
        <mxCell id="kqIVONm1dLysE9pT50F9-103" value="" style="shape=partialRectangle;connectable=0;fillColor=none;top=0;left=0;bottom=0;right=0;editable=1;overflow=hidden;" parent="kqIVONm1dLysE9pT50F9-102" vertex="1">
          <mxGeometry width="30" height="30" as="geometry">
            <mxRectangle width="30" height="30" as="alternateBounds" />
          </mxGeometry>
        </mxCell>
        <mxCell id="kqIVONm1dLysE9pT50F9-104" value="status" style="shape=partialRectangle;connectable=0;fillColor=none;top=0;left=0;bottom=0;right=0;align=left;spacingLeft=6;overflow=hidden;" parent="kqIVONm1dLysE9pT50F9-102" vertex="1">
          <mxGeometry x="30" width="150" height="30" as="geometry">
            <mxRectangle width="150" height="30" as="alternateBounds" />
          </mxGeometry>
        </mxCell>
        <mxCell id="kqIVONm1dLysE9pT50F9-96" value="" style="shape=tableRow;horizontal=0;startSize=0;swimlaneHead=0;swimlaneBody=0;fillColor=none;collapsible=0;dropTarget=0;points=[[0,0.5],[1,0.5]];portConstraint=eastwest;top=0;left=0;right=0;bottom=0;" parent="kqIVONm1dLysE9pT50F9-86" vertex="1">
          <mxGeometry y="210" width="180" height="30" as="geometry" />
        </mxCell>
        <mxCell id="kqIVONm1dLysE9pT50F9-97" value="" style="shape=partialRectangle;connectable=0;fillColor=none;top=0;left=0;bottom=0;right=0;editable=1;overflow=hidden;whiteSpace=wrap;html=1;" parent="kqIVONm1dLysE9pT50F9-96" vertex="1">
          <mxGeometry width="30" height="30" as="geometry">
            <mxRectangle width="30" height="30" as="alternateBounds" />
          </mxGeometry>
        </mxCell>
        <mxCell id="kqIVONm1dLysE9pT50F9-98" value="size_in_bytes" style="shape=partialRectangle;connectable=0;fillColor=none;top=0;left=0;bottom=0;right=0;align=left;spacingLeft=6;overflow=hidden;whiteSpace=wrap;html=1;" parent="kqIVONm1dLysE9pT50F9-96" vertex="1">
          <mxGeometry x="30" width="150" height="30" as="geometry">
            <mxRectangle width="150" height="30" as="alternateBounds" />
          </mxGeometry>
        </mxCell>
        <mxCell id="kqIVONm1dLysE9pT50F9-105" value="" style="shape=tableRow;horizontal=0;startSize=0;swimlaneHead=0;swimlaneBody=0;fillColor=none;collapsible=0;dropTarget=0;points=[[0,0.5],[1,0.5]];portConstraint=eastwest;top=0;left=0;right=0;bottom=0;" parent="kqIVONm1dLysE9pT50F9-86" vertex="1">
          <mxGeometry y="240" width="180" height="30" as="geometry" />
        </mxCell>
        <mxCell id="kqIVONm1dLysE9pT50F9-106" value="" style="shape=partialRectangle;connectable=0;fillColor=none;top=0;left=0;bottom=0;right=0;editable=1;overflow=hidden;" parent="kqIVONm1dLysE9pT50F9-105" vertex="1">
          <mxGeometry width="30" height="30" as="geometry">
            <mxRectangle width="30" height="30" as="alternateBounds" />
          </mxGeometry>
        </mxCell>
        <mxCell id="kqIVONm1dLysE9pT50F9-107" value="upload_at" style="shape=partialRectangle;connectable=0;fillColor=none;top=0;left=0;bottom=0;right=0;align=left;spacingLeft=6;overflow=hidden;" parent="kqIVONm1dLysE9pT50F9-105" vertex="1">
          <mxGeometry x="30" width="150" height="30" as="geometry">
            <mxRectangle width="150" height="30" as="alternateBounds" />
          </mxGeometry>
        </mxCell>
        <mxCell id="kqIVONm1dLysE9pT50F9-108" value="PERMITTED_FILE_TYPE" style="shape=table;startSize=30;container=1;collapsible=1;childLayout=tableLayout;fixedRows=1;rowLines=0;fontStyle=1;align=center;resizeLast=1;html=1;" parent="1" vertex="1">
          <mxGeometry x="-1670" y="200" width="180" height="90" as="geometry" />
        </mxCell>
        <mxCell id="kqIVONm1dLysE9pT50F9-109" value="" style="shape=tableRow;horizontal=0;startSize=0;swimlaneHead=0;swimlaneBody=0;fillColor=none;collapsible=0;dropTarget=0;points=[[0,0.5],[1,0.5]];portConstraint=eastwest;top=0;left=0;right=0;bottom=1;" parent="kqIVONm1dLysE9pT50F9-108" vertex="1">
          <mxGeometry y="30" width="180" height="30" as="geometry" />
        </mxCell>
        <mxCell id="kqIVONm1dLysE9pT50F9-110" value="PK" style="shape=partialRectangle;connectable=0;fillColor=none;top=0;left=0;bottom=0;right=0;fontStyle=1;overflow=hidden;whiteSpace=wrap;html=1;" parent="kqIVONm1dLysE9pT50F9-109" vertex="1">
          <mxGeometry width="30" height="30" as="geometry">
            <mxRectangle width="30" height="30" as="alternateBounds" />
          </mxGeometry>
        </mxCell>
        <mxCell id="kqIVONm1dLysE9pT50F9-111" value="file_type_id" style="shape=partialRectangle;connectable=0;fillColor=none;top=0;left=0;bottom=0;right=0;align=left;spacingLeft=6;fontStyle=5;overflow=hidden;whiteSpace=wrap;html=1;" parent="kqIVONm1dLysE9pT50F9-109" vertex="1">
          <mxGeometry x="30" width="150" height="30" as="geometry">
            <mxRectangle width="150" height="30" as="alternateBounds" />
          </mxGeometry>
        </mxCell>
        <mxCell id="kqIVONm1dLysE9pT50F9-112" value="" style="shape=tableRow;horizontal=0;startSize=0;swimlaneHead=0;swimlaneBody=0;fillColor=none;collapsible=0;dropTarget=0;points=[[0,0.5],[1,0.5]];portConstraint=eastwest;top=0;left=0;right=0;bottom=0;" parent="kqIVONm1dLysE9pT50F9-108" vertex="1">
          <mxGeometry y="60" width="180" height="30" as="geometry" />
        </mxCell>
        <mxCell id="kqIVONm1dLysE9pT50F9-113" value="" style="shape=partialRectangle;connectable=0;fillColor=none;top=0;left=0;bottom=0;right=0;editable=1;overflow=hidden;whiteSpace=wrap;html=1;" parent="kqIVONm1dLysE9pT50F9-112" vertex="1">
          <mxGeometry width="30" height="30" as="geometry">
            <mxRectangle width="30" height="30" as="alternateBounds" />
          </mxGeometry>
        </mxCell>
        <mxCell id="kqIVONm1dLysE9pT50F9-114" value="mime_type" style="shape=partialRectangle;connectable=0;fillColor=none;top=0;left=0;bottom=0;right=0;align=left;spacingLeft=6;overflow=hidden;whiteSpace=wrap;html=1;" parent="kqIVONm1dLysE9pT50F9-112" vertex="1">
          <mxGeometry x="30" width="150" height="30" as="geometry">
            <mxRectangle width="150" height="30" as="alternateBounds" />
          </mxGeometry>
        </mxCell>
        <mxCell id="kqIVONm1dLysE9pT50F9-125" value="" style="endArrow=classic;html=1;rounded=0;entryX=0;entryY=0.5;entryDx=0;entryDy=0;exitX=1;exitY=0.5;exitDx=0;exitDy=0;edgeStyle=orthogonalEdgeStyle;curved=1;" parent="1" source="kqIVONm1dLysE9pT50F9-44" target="kqIVONm1dLysE9pT50F9-61" edge="1">
          <mxGeometry width="50" height="50" relative="1" as="geometry">
            <mxPoint x="-2060" y="-200" as="sourcePoint" />
            <mxPoint x="-2010" y="-250" as="targetPoint" />
          </mxGeometry>
        </mxCell>
        <mxCell id="kqIVONm1dLysE9pT50F9-126" value="" style="endArrow=classic;html=1;rounded=0;exitX=1;exitY=0.5;exitDx=0;exitDy=0;entryX=0;entryY=0.5;entryDx=0;entryDy=0;edgeStyle=orthogonalEdgeStyle;curved=1;" parent="1" source="kqIVONm1dLysE9pT50F9-109" target="kqIVONm1dLysE9pT50F9-87" edge="1">
          <mxGeometry width="50" height="50" relative="1" as="geometry">
            <mxPoint x="-1590" y="-440" as="sourcePoint" />
            <mxPoint x="-1540" y="-490" as="targetPoint" />
          </mxGeometry>
        </mxCell>
        <mxCell id="kqIVONm1dLysE9pT50F9-127" value="" style="endArrow=classic;html=1;rounded=0;exitX=1;exitY=0.5;exitDx=0;exitDy=0;entryX=0;entryY=0.5;entryDx=0;entryDy=0;edgeStyle=orthogonalEdgeStyle;curved=1;" parent="1" source="kqIVONm1dLysE9pT50F9-44" target="kqIVONm1dLysE9pT50F9-122" edge="1">
          <mxGeometry width="50" height="50" relative="1" as="geometry">
            <mxPoint x="-1660" y="-350" as="sourcePoint" />
            <mxPoint x="-1610" y="-400" as="targetPoint" />
          </mxGeometry>
        </mxCell>
        <mxCell id="kqIVONm1dLysE9pT50F9-128" value="PRINT_JOBS" style="shape=table;startSize=30;container=1;collapsible=1;childLayout=tableLayout;fixedRows=1;rowLines=0;fontStyle=1;align=center;resizeLast=1;html=1;" parent="1" vertex="1">
          <mxGeometry x="-2530" y="-255" width="180" height="300" as="geometry" />
        </mxCell>
        <mxCell id="kqIVONm1dLysE9pT50F9-129" value="" style="shape=tableRow;horizontal=0;startSize=0;swimlaneHead=0;swimlaneBody=0;fillColor=none;collapsible=0;dropTarget=0;points=[[0,0.5],[1,0.5]];portConstraint=eastwest;top=0;left=0;right=0;bottom=1;" parent="kqIVONm1dLysE9pT50F9-128" vertex="1">
          <mxGeometry y="30" width="180" height="30" as="geometry" />
        </mxCell>
        <mxCell id="kqIVONm1dLysE9pT50F9-130" value="PK" style="shape=partialRectangle;connectable=0;fillColor=none;top=0;left=0;bottom=0;right=0;fontStyle=1;overflow=hidden;whiteSpace=wrap;html=1;" parent="kqIVONm1dLysE9pT50F9-129" vertex="1">
          <mxGeometry width="30" height="30" as="geometry">
            <mxRectangle width="30" height="30" as="alternateBounds" />
          </mxGeometry>
        </mxCell>
        <mxCell id="kqIVONm1dLysE9pT50F9-131" value="print_jobs_id" style="shape=partialRectangle;connectable=0;fillColor=none;top=0;left=0;bottom=0;right=0;align=left;spacingLeft=6;fontStyle=5;overflow=hidden;whiteSpace=wrap;html=1;" parent="kqIVONm1dLysE9pT50F9-129" vertex="1">
          <mxGeometry x="30" width="150" height="30" as="geometry">
            <mxRectangle width="150" height="30" as="alternateBounds" />
          </mxGeometry>
        </mxCell>
        <mxCell id="kqIVONm1dLysE9pT50F9-149" value="" style="shape=tableRow;horizontal=0;startSize=0;swimlaneHead=0;swimlaneBody=0;fillColor=none;collapsible=0;dropTarget=0;points=[[0,0.5],[1,0.5]];portConstraint=eastwest;top=0;left=0;right=0;bottom=1;" parent="kqIVONm1dLysE9pT50F9-128" vertex="1">
          <mxGeometry y="60" width="180" height="30" as="geometry" />
        </mxCell>
        <mxCell id="kqIVONm1dLysE9pT50F9-150" value="FK" style="shape=partialRectangle;connectable=0;fillColor=none;top=0;left=0;bottom=0;right=0;fontStyle=1;overflow=hidden;whiteSpace=wrap;html=1;" parent="kqIVONm1dLysE9pT50F9-149" vertex="1">
          <mxGeometry width="30" height="30" as="geometry">
            <mxRectangle width="30" height="30" as="alternateBounds" />
          </mxGeometry>
        </mxCell>
        <mxCell id="kqIVONm1dLysE9pT50F9-151" value="print_config_id" style="shape=partialRectangle;connectable=0;fillColor=none;top=0;left=0;bottom=0;right=0;align=left;spacingLeft=6;fontStyle=5;overflow=hidden;whiteSpace=wrap;html=1;" parent="kqIVONm1dLysE9pT50F9-149" vertex="1">
          <mxGeometry x="30" width="150" height="30" as="geometry">
            <mxRectangle width="150" height="30" as="alternateBounds" />
          </mxGeometry>
        </mxCell>
        <mxCell id="kqIVONm1dLysE9pT50F9-218" value="" style="shape=tableRow;horizontal=0;startSize=0;swimlaneHead=0;swimlaneBody=0;fillColor=none;collapsible=0;dropTarget=0;points=[[0,0.5],[1,0.5]];portConstraint=eastwest;top=0;left=0;right=0;bottom=1;" parent="kqIVONm1dLysE9pT50F9-128" vertex="1">
          <mxGeometry y="90" width="180" height="30" as="geometry" />
        </mxCell>
        <mxCell id="kqIVONm1dLysE9pT50F9-219" value="FK" style="shape=partialRectangle;connectable=0;fillColor=none;top=0;left=0;bottom=0;right=0;fontStyle=1;overflow=hidden;whiteSpace=wrap;html=1;" parent="kqIVONm1dLysE9pT50F9-218" vertex="1">
          <mxGeometry width="30" height="30" as="geometry">
            <mxRectangle width="30" height="30" as="alternateBounds" />
          </mxGeometry>
        </mxCell>
        <mxCell id="kqIVONm1dLysE9pT50F9-220" value="printer_id" style="shape=partialRectangle;connectable=0;fillColor=none;top=0;left=0;bottom=0;right=0;align=left;spacingLeft=6;fontStyle=5;overflow=hidden;whiteSpace=wrap;html=1;" parent="kqIVONm1dLysE9pT50F9-218" vertex="1">
          <mxGeometry x="30" width="150" height="30" as="geometry">
            <mxRectangle width="150" height="30" as="alternateBounds" />
          </mxGeometry>
        </mxCell>
        <mxCell id="kqIVONm1dLysE9pT50F9-146" value="" style="shape=tableRow;horizontal=0;startSize=0;swimlaneHead=0;swimlaneBody=0;fillColor=none;collapsible=0;dropTarget=0;points=[[0,0.5],[1,0.5]];portConstraint=eastwest;top=0;left=0;right=0;bottom=1;" parent="kqIVONm1dLysE9pT50F9-128" vertex="1">
          <mxGeometry y="120" width="180" height="30" as="geometry" />
        </mxCell>
        <mxCell id="kqIVONm1dLysE9pT50F9-147" value="FK" style="shape=partialRectangle;connectable=0;fillColor=none;top=0;left=0;bottom=0;right=0;fontStyle=1;overflow=hidden;whiteSpace=wrap;html=1;" parent="kqIVONm1dLysE9pT50F9-146" vertex="1">
          <mxGeometry width="30" height="30" as="geometry">
            <mxRectangle width="30" height="30" as="alternateBounds" />
          </mxGeometry>
        </mxCell>
        <mxCell id="kqIVONm1dLysE9pT50F9-148" value="student_id" style="shape=partialRectangle;connectable=0;fillColor=none;top=0;left=0;bottom=0;right=0;align=left;spacingLeft=6;fontStyle=5;overflow=hidden;whiteSpace=wrap;html=1;" parent="kqIVONm1dLysE9pT50F9-146" vertex="1">
          <mxGeometry x="30" width="150" height="30" as="geometry">
            <mxRectangle width="150" height="30" as="alternateBounds" />
          </mxGeometry>
        </mxCell>
        <mxCell id="kqIVONm1dLysE9pT50F9-132" value="" style="shape=tableRow;horizontal=0;startSize=0;swimlaneHead=0;swimlaneBody=0;fillColor=none;collapsible=0;dropTarget=0;points=[[0,0.5],[1,0.5]];portConstraint=eastwest;top=0;left=0;right=0;bottom=0;" parent="kqIVONm1dLysE9pT50F9-128" vertex="1">
          <mxGeometry y="150" width="180" height="30" as="geometry" />
        </mxCell>
        <mxCell id="kqIVONm1dLysE9pT50F9-133" value="" style="shape=partialRectangle;connectable=0;fillColor=none;top=0;left=0;bottom=0;right=0;editable=1;overflow=hidden;whiteSpace=wrap;html=1;" parent="kqIVONm1dLysE9pT50F9-132" vertex="1">
          <mxGeometry width="30" height="30" as="geometry">
            <mxRectangle width="30" height="30" as="alternateBounds" />
          </mxGeometry>
        </mxCell>
        <mxCell id="kqIVONm1dLysE9pT50F9-134" value="submit_time" style="shape=partialRectangle;connectable=0;fillColor=none;top=0;left=0;bottom=0;right=0;align=left;spacingLeft=6;overflow=hidden;whiteSpace=wrap;html=1;" parent="kqIVONm1dLysE9pT50F9-132" vertex="1">
          <mxGeometry x="30" width="150" height="30" as="geometry">
            <mxRectangle width="150" height="30" as="alternateBounds" />
          </mxGeometry>
        </mxCell>
        <mxCell id="kqIVONm1dLysE9pT50F9-135" value="" style="shape=tableRow;horizontal=0;startSize=0;swimlaneHead=0;swimlaneBody=0;fillColor=none;collapsible=0;dropTarget=0;points=[[0,0.5],[1,0.5]];portConstraint=eastwest;top=0;left=0;right=0;bottom=0;" parent="kqIVONm1dLysE9pT50F9-128" vertex="1">
          <mxGeometry y="180" width="180" height="30" as="geometry" />
        </mxCell>
        <mxCell id="kqIVONm1dLysE9pT50F9-136" value="" style="shape=partialRectangle;connectable=0;fillColor=none;top=0;left=0;bottom=0;right=0;editable=1;overflow=hidden;whiteSpace=wrap;html=1;" parent="kqIVONm1dLysE9pT50F9-135" vertex="1">
          <mxGeometry width="30" height="30" as="geometry">
            <mxRectangle width="30" height="30" as="alternateBounds" />
          </mxGeometry>
        </mxCell>
        <mxCell id="kqIVONm1dLysE9pT50F9-137" value="total_printed_side" style="shape=partialRectangle;connectable=0;fillColor=none;top=0;left=0;bottom=0;right=0;align=left;spacingLeft=6;overflow=hidden;whiteSpace=wrap;html=1;" parent="kqIVONm1dLysE9pT50F9-135" vertex="1">
          <mxGeometry x="30" width="150" height="30" as="geometry">
            <mxRectangle width="150" height="30" as="alternateBounds" />
          </mxGeometry>
        </mxCell>
        <mxCell id="kqIVONm1dLysE9pT50F9-138" value="" style="shape=tableRow;horizontal=0;startSize=0;swimlaneHead=0;swimlaneBody=0;fillColor=none;collapsible=0;dropTarget=0;points=[[0,0.5],[1,0.5]];portConstraint=eastwest;top=0;left=0;right=0;bottom=0;" parent="kqIVONm1dLysE9pT50F9-128" vertex="1">
          <mxGeometry y="210" width="180" height="30" as="geometry" />
        </mxCell>
        <mxCell id="kqIVONm1dLysE9pT50F9-139" value="" style="shape=partialRectangle;connectable=0;fillColor=none;top=0;left=0;bottom=0;right=0;editable=1;overflow=hidden;whiteSpace=wrap;html=1;" parent="kqIVONm1dLysE9pT50F9-138" vertex="1">
          <mxGeometry width="30" height="30" as="geometry">
            <mxRectangle width="30" height="30" as="alternateBounds" />
          </mxGeometry>
        </mxCell>
        <mxCell id="kqIVONm1dLysE9pT50F9-140" value="print_start_time" style="shape=partialRectangle;connectable=0;fillColor=none;top=0;left=0;bottom=0;right=0;align=left;spacingLeft=6;overflow=hidden;whiteSpace=wrap;html=1;" parent="kqIVONm1dLysE9pT50F9-138" vertex="1">
          <mxGeometry x="30" width="150" height="30" as="geometry">
            <mxRectangle width="150" height="30" as="alternateBounds" />
          </mxGeometry>
        </mxCell>
        <mxCell id="yPePk5AXQ9-rEXU3vP_E-7" value="" style="shape=tableRow;horizontal=0;startSize=0;swimlaneHead=0;swimlaneBody=0;fillColor=none;collapsible=0;dropTarget=0;points=[[0,0.5],[1,0.5]];portConstraint=eastwest;top=0;left=0;right=0;bottom=0;" vertex="1" parent="kqIVONm1dLysE9pT50F9-128">
          <mxGeometry y="240" width="180" height="30" as="geometry" />
        </mxCell>
        <mxCell id="yPePk5AXQ9-rEXU3vP_E-8" value="" style="shape=partialRectangle;connectable=0;fillColor=none;top=0;left=0;bottom=0;right=0;editable=1;overflow=hidden;" vertex="1" parent="yPePk5AXQ9-rEXU3vP_E-7">
          <mxGeometry width="30" height="30" as="geometry">
            <mxRectangle width="30" height="30" as="alternateBounds" />
          </mxGeometry>
        </mxCell>
        <mxCell id="yPePk5AXQ9-rEXU3vP_E-9" value="status" style="shape=partialRectangle;connectable=0;fillColor=none;top=0;left=0;bottom=0;right=0;align=left;spacingLeft=6;overflow=hidden;" vertex="1" parent="yPePk5AXQ9-rEXU3vP_E-7">
          <mxGeometry x="30" width="150" height="30" as="geometry">
            <mxRectangle width="150" height="30" as="alternateBounds" />
          </mxGeometry>
        </mxCell>
        <mxCell id="kqIVONm1dLysE9pT50F9-259" value="" style="shape=tableRow;horizontal=0;startSize=0;swimlaneHead=0;swimlaneBody=0;fillColor=none;collapsible=0;dropTarget=0;points=[[0,0.5],[1,0.5]];portConstraint=eastwest;top=0;left=0;right=0;bottom=0;" parent="kqIVONm1dLysE9pT50F9-128" vertex="1">
          <mxGeometry y="270" width="180" height="30" as="geometry" />
        </mxCell>
        <mxCell id="kqIVONm1dLysE9pT50F9-260" value="" style="shape=partialRectangle;connectable=0;fillColor=none;top=0;left=0;bottom=0;right=0;editable=1;overflow=hidden;" parent="kqIVONm1dLysE9pT50F9-259" vertex="1">
          <mxGeometry width="30" height="30" as="geometry">
            <mxRectangle width="30" height="30" as="alternateBounds" />
          </mxGeometry>
        </mxCell>
        <mxCell id="kqIVONm1dLysE9pT50F9-261" value="print_end_time" style="shape=partialRectangle;connectable=0;fillColor=none;top=0;left=0;bottom=0;right=0;align=left;spacingLeft=6;overflow=hidden;" parent="kqIVONm1dLysE9pT50F9-259" vertex="1">
          <mxGeometry x="30" width="150" height="30" as="geometry">
            <mxRectangle width="150" height="30" as="alternateBounds" />
          </mxGeometry>
        </mxCell>
        <mxCell id="kqIVONm1dLysE9pT50F9-141" value="&lt;font style=&quot;font-size: 26px;&quot;&gt;PRINT&lt;/font&gt;" style="shape=rhombus;perimeter=rhombusPerimeter;whiteSpace=wrap;html=1;align=center;" parent="1" vertex="1">
          <mxGeometry x="620" y="760" width="290" height="120" as="geometry" />
        </mxCell>
        <mxCell id="kqIVONm1dLysE9pT50F9-142" value="" style="shape=link;html=1;rounded=0;exitX=1;exitY=0;exitDx=0;exitDy=0;entryX=0;entryY=0.5;entryDx=0;entryDy=0;" parent="1" source="JlgmeeBGbs_2zezeXvUX-101" target="kqIVONm1dLysE9pT50F9-141" edge="1">
          <mxGeometry relative="1" as="geometry">
            <mxPoint x="550" y="960" as="sourcePoint" />
            <mxPoint x="710" y="960" as="targetPoint" />
          </mxGeometry>
        </mxCell>
        <mxCell id="kqIVONm1dLysE9pT50F9-143" value="N" style="resizable=0;html=1;whiteSpace=wrap;align=right;verticalAlign=bottom;" parent="kqIVONm1dLysE9pT50F9-142" connectable="0" vertex="1">
          <mxGeometry x="1" relative="1" as="geometry" />
        </mxCell>
        <mxCell id="kqIVONm1dLysE9pT50F9-144" value="" style="endArrow=none;html=1;rounded=0;exitX=0;exitY=1;exitDx=0;exitDy=0;entryX=1;entryY=0.5;entryDx=0;entryDy=0;" parent="1" source="JlgmeeBGbs_2zezeXvUX-59" target="kqIVONm1dLysE9pT50F9-141" edge="1">
          <mxGeometry relative="1" as="geometry">
            <mxPoint x="850" y="680" as="sourcePoint" />
            <mxPoint x="1010" y="680" as="targetPoint" />
          </mxGeometry>
        </mxCell>
        <mxCell id="kqIVONm1dLysE9pT50F9-145" value="N" style="resizable=0;html=1;whiteSpace=wrap;align=right;verticalAlign=bottom;" parent="kqIVONm1dLysE9pT50F9-144" connectable="0" vertex="1">
          <mxGeometry x="1" relative="1" as="geometry" />
        </mxCell>
        <mxCell id="kqIVONm1dLysE9pT50F9-154" value="PRINT_JOBS_FILE" style="shape=table;startSize=30;container=1;collapsible=1;childLayout=tableLayout;fixedRows=1;rowLines=0;fontStyle=1;align=center;resizeLast=1;html=1;" parent="1" vertex="1">
          <mxGeometry x="-2170" y="-20" width="180" height="120" as="geometry" />
        </mxCell>
        <mxCell id="kqIVONm1dLysE9pT50F9-155" value="" style="shape=tableRow;horizontal=0;startSize=0;swimlaneHead=0;swimlaneBody=0;fillColor=none;collapsible=0;dropTarget=0;points=[[0,0.5],[1,0.5]];portConstraint=eastwest;top=0;left=0;right=0;bottom=1;" parent="kqIVONm1dLysE9pT50F9-154" vertex="1">
          <mxGeometry y="30" width="180" height="30" as="geometry" />
        </mxCell>
        <mxCell id="kqIVONm1dLysE9pT50F9-156" value="FK" style="shape=partialRectangle;connectable=0;fillColor=none;top=0;left=0;bottom=0;right=0;fontStyle=1;overflow=hidden;whiteSpace=wrap;html=1;" parent="kqIVONm1dLysE9pT50F9-155" vertex="1">
          <mxGeometry width="30" height="30" as="geometry">
            <mxRectangle width="30" height="30" as="alternateBounds" />
          </mxGeometry>
        </mxCell>
        <mxCell id="kqIVONm1dLysE9pT50F9-157" value="print_jobs_id" style="shape=partialRectangle;connectable=0;fillColor=none;top=0;left=0;bottom=0;right=0;align=left;spacingLeft=6;fontStyle=5;overflow=hidden;whiteSpace=wrap;html=1;" parent="kqIVONm1dLysE9pT50F9-155" vertex="1">
          <mxGeometry x="30" width="150" height="30" as="geometry">
            <mxRectangle width="150" height="30" as="alternateBounds" />
          </mxGeometry>
        </mxCell>
        <mxCell id="kqIVONm1dLysE9pT50F9-167" value="" style="shape=tableRow;horizontal=0;startSize=0;swimlaneHead=0;swimlaneBody=0;fillColor=none;collapsible=0;dropTarget=0;points=[[0,0.5],[1,0.5]];portConstraint=eastwest;top=0;left=0;right=0;bottom=1;" parent="kqIVONm1dLysE9pT50F9-154" vertex="1">
          <mxGeometry y="60" width="180" height="30" as="geometry" />
        </mxCell>
        <mxCell id="kqIVONm1dLysE9pT50F9-168" value="FK" style="shape=partialRectangle;connectable=0;fillColor=none;top=0;left=0;bottom=0;right=0;fontStyle=1;overflow=hidden;whiteSpace=wrap;html=1;" parent="kqIVONm1dLysE9pT50F9-167" vertex="1">
          <mxGeometry width="30" height="30" as="geometry">
            <mxRectangle width="30" height="30" as="alternateBounds" />
          </mxGeometry>
        </mxCell>
        <mxCell id="kqIVONm1dLysE9pT50F9-169" value="file_id" style="shape=partialRectangle;connectable=0;fillColor=none;top=0;left=0;bottom=0;right=0;align=left;spacingLeft=6;fontStyle=5;overflow=hidden;whiteSpace=wrap;html=1;" parent="kqIVONm1dLysE9pT50F9-167" vertex="1">
          <mxGeometry x="30" width="150" height="30" as="geometry">
            <mxRectangle width="150" height="30" as="alternateBounds" />
          </mxGeometry>
        </mxCell>
        <mxCell id="kqIVONm1dLysE9pT50F9-164" value="" style="shape=tableRow;horizontal=0;startSize=0;swimlaneHead=0;swimlaneBody=0;fillColor=none;collapsible=0;dropTarget=0;points=[[0,0.5],[1,0.5]];portConstraint=eastwest;top=0;left=0;right=0;bottom=0;" parent="kqIVONm1dLysE9pT50F9-154" vertex="1">
          <mxGeometry y="90" width="180" height="30" as="geometry" />
        </mxCell>
        <mxCell id="kqIVONm1dLysE9pT50F9-165" value="" style="shape=partialRectangle;connectable=0;fillColor=none;top=0;left=0;bottom=0;right=0;editable=1;overflow=hidden;whiteSpace=wrap;html=1;" parent="kqIVONm1dLysE9pT50F9-164" vertex="1">
          <mxGeometry width="30" height="30" as="geometry">
            <mxRectangle width="30" height="30" as="alternateBounds" />
          </mxGeometry>
        </mxCell>
        <mxCell id="kqIVONm1dLysE9pT50F9-166" value="" style="shape=partialRectangle;connectable=0;fillColor=none;top=0;left=0;bottom=0;right=0;align=left;spacingLeft=6;overflow=hidden;whiteSpace=wrap;html=1;" parent="kqIVONm1dLysE9pT50F9-164" vertex="1">
          <mxGeometry x="30" width="150" height="30" as="geometry">
            <mxRectangle width="150" height="30" as="alternateBounds" />
          </mxGeometry>
        </mxCell>
        <mxCell id="kqIVONm1dLysE9pT50F9-170" value="" style="endArrow=classic;html=1;rounded=0;exitX=1;exitY=0.5;exitDx=0;exitDy=0;entryX=0;entryY=0.5;entryDx=0;entryDy=0;edgeStyle=orthogonalEdgeStyle;curved=1;" parent="1" source="kqIVONm1dLysE9pT50F9-129" target="kqIVONm1dLysE9pT50F9-155" edge="1">
          <mxGeometry width="50" height="50" relative="1" as="geometry">
            <mxPoint x="-2270" y="-60" as="sourcePoint" />
            <mxPoint x="-2220" y="-110" as="targetPoint" />
          </mxGeometry>
        </mxCell>
        <mxCell id="kqIVONm1dLysE9pT50F9-171" value="" style="endArrow=classic;html=1;rounded=0;entryX=1;entryY=0.5;entryDx=0;entryDy=0;exitX=0;exitY=0.5;exitDx=0;exitDy=0;edgeStyle=orthogonalEdgeStyle;curved=1;" parent="1" source="kqIVONm1dLysE9pT50F9-99" target="kqIVONm1dLysE9pT50F9-167" edge="1">
          <mxGeometry width="50" height="50" relative="1" as="geometry">
            <mxPoint x="-1720" y="140" as="sourcePoint" />
            <mxPoint x="-1670" y="90" as="targetPoint" />
          </mxGeometry>
        </mxCell>
        <mxCell id="kqIVONm1dLysE9pT50F9-172" value="PRINT_CONFIG" style="shape=table;startSize=40;container=1;collapsible=1;childLayout=tableLayout;fixedRows=1;rowLines=0;fontStyle=1;align=center;resizeLast=1;html=1;" parent="1" vertex="1">
          <mxGeometry x="-2910" y="-200" width="180" height="310" as="geometry" />
        </mxCell>
        <mxCell id="kqIVONm1dLysE9pT50F9-185" value="" style="shape=tableRow;horizontal=0;startSize=0;swimlaneHead=0;swimlaneBody=0;fillColor=none;collapsible=0;dropTarget=0;points=[[0,0.5],[1,0.5]];portConstraint=eastwest;top=0;left=0;right=0;bottom=1;" parent="kqIVONm1dLysE9pT50F9-172" vertex="1">
          <mxGeometry y="40" width="180" height="30" as="geometry" />
        </mxCell>
        <mxCell id="kqIVONm1dLysE9pT50F9-186" value="PK" style="shape=partialRectangle;connectable=0;fillColor=none;top=0;left=0;bottom=0;right=0;fontStyle=1;overflow=hidden;whiteSpace=wrap;html=1;" parent="kqIVONm1dLysE9pT50F9-185" vertex="1">
          <mxGeometry width="30" height="30" as="geometry">
            <mxRectangle width="30" height="30" as="alternateBounds" />
          </mxGeometry>
        </mxCell>
        <mxCell id="kqIVONm1dLysE9pT50F9-187" value="print_config_id" style="shape=partialRectangle;connectable=0;fillColor=none;top=0;left=0;bottom=0;right=0;align=left;spacingLeft=6;fontStyle=5;overflow=hidden;whiteSpace=wrap;html=1;" parent="kqIVONm1dLysE9pT50F9-185" vertex="1">
          <mxGeometry x="30" width="150" height="30" as="geometry">
            <mxRectangle width="150" height="30" as="alternateBounds" />
          </mxGeometry>
        </mxCell>
        <mxCell id="kqIVONm1dLysE9pT50F9-173" value="" style="shape=tableRow;horizontal=0;startSize=0;swimlaneHead=0;swimlaneBody=0;fillColor=none;collapsible=0;dropTarget=0;points=[[0,0.5],[1,0.5]];portConstraint=eastwest;top=0;left=0;right=0;bottom=1;" parent="kqIVONm1dLysE9pT50F9-172" vertex="1">
          <mxGeometry y="70" width="180" height="30" as="geometry" />
        </mxCell>
        <mxCell id="kqIVONm1dLysE9pT50F9-174" value="PK" style="shape=partialRectangle;connectable=0;fillColor=none;top=0;left=0;bottom=0;right=0;fontStyle=1;overflow=hidden;whiteSpace=wrap;html=1;" parent="kqIVONm1dLysE9pT50F9-173" vertex="1">
          <mxGeometry width="30" height="30" as="geometry">
            <mxRectangle width="30" height="30" as="alternateBounds" />
          </mxGeometry>
        </mxCell>
        <mxCell id="kqIVONm1dLysE9pT50F9-175" value="print_jobs_id" style="shape=partialRectangle;connectable=0;fillColor=none;top=0;left=0;bottom=0;right=0;align=left;spacingLeft=6;fontStyle=5;overflow=hidden;whiteSpace=wrap;html=1;" parent="kqIVONm1dLysE9pT50F9-173" vertex="1">
          <mxGeometry x="30" width="150" height="30" as="geometry">
            <mxRectangle width="150" height="30" as="alternateBounds" />
          </mxGeometry>
        </mxCell>
        <mxCell id="kqIVONm1dLysE9pT50F9-176" value="" style="shape=tableRow;horizontal=0;startSize=0;swimlaneHead=0;swimlaneBody=0;fillColor=none;collapsible=0;dropTarget=0;points=[[0,0.5],[1,0.5]];portConstraint=eastwest;top=0;left=0;right=0;bottom=0;" parent="kqIVONm1dLysE9pT50F9-172" vertex="1">
          <mxGeometry y="100" width="180" height="30" as="geometry" />
        </mxCell>
        <mxCell id="kqIVONm1dLysE9pT50F9-177" value="" style="shape=partialRectangle;connectable=0;fillColor=none;top=0;left=0;bottom=0;right=0;editable=1;overflow=hidden;whiteSpace=wrap;html=1;" parent="kqIVONm1dLysE9pT50F9-176" vertex="1">
          <mxGeometry width="30" height="30" as="geometry">
            <mxRectangle width="30" height="30" as="alternateBounds" />
          </mxGeometry>
        </mxCell>
        <mxCell id="kqIVONm1dLysE9pT50F9-178" value="pages_in_a4" style="shape=partialRectangle;connectable=0;fillColor=none;top=0;left=0;bottom=0;right=0;align=left;spacingLeft=6;overflow=hidden;whiteSpace=wrap;html=1;" parent="kqIVONm1dLysE9pT50F9-176" vertex="1">
          <mxGeometry x="30" width="150" height="30" as="geometry">
            <mxRectangle width="150" height="30" as="alternateBounds" />
          </mxGeometry>
        </mxCell>
        <mxCell id="kqIVONm1dLysE9pT50F9-179" value="" style="shape=tableRow;horizontal=0;startSize=0;swimlaneHead=0;swimlaneBody=0;fillColor=none;collapsible=0;dropTarget=0;points=[[0,0.5],[1,0.5]];portConstraint=eastwest;top=0;left=0;right=0;bottom=0;" parent="kqIVONm1dLysE9pT50F9-172" vertex="1">
          <mxGeometry y="130" width="180" height="30" as="geometry" />
        </mxCell>
        <mxCell id="kqIVONm1dLysE9pT50F9-180" value="" style="shape=partialRectangle;connectable=0;fillColor=none;top=0;left=0;bottom=0;right=0;editable=1;overflow=hidden;whiteSpace=wrap;html=1;" parent="kqIVONm1dLysE9pT50F9-179" vertex="1">
          <mxGeometry width="30" height="30" as="geometry">
            <mxRectangle width="30" height="30" as="alternateBounds" />
          </mxGeometry>
        </mxCell>
        <mxCell id="kqIVONm1dLysE9pT50F9-181" value="pages_in_a3" style="shape=partialRectangle;connectable=0;fillColor=none;top=0;left=0;bottom=0;right=0;align=left;spacingLeft=6;overflow=hidden;whiteSpace=wrap;html=1;" parent="kqIVONm1dLysE9pT50F9-179" vertex="1">
          <mxGeometry x="30" width="150" height="30" as="geometry">
            <mxRectangle width="150" height="30" as="alternateBounds" />
          </mxGeometry>
        </mxCell>
        <mxCell id="kqIVONm1dLysE9pT50F9-182" value="" style="shape=tableRow;horizontal=0;startSize=0;swimlaneHead=0;swimlaneBody=0;fillColor=none;collapsible=0;dropTarget=0;points=[[0,0.5],[1,0.5]];portConstraint=eastwest;top=0;left=0;right=0;bottom=0;" parent="kqIVONm1dLysE9pT50F9-172" vertex="1">
          <mxGeometry y="160" width="180" height="30" as="geometry" />
        </mxCell>
        <mxCell id="kqIVONm1dLysE9pT50F9-183" value="" style="shape=partialRectangle;connectable=0;fillColor=none;top=0;left=0;bottom=0;right=0;editable=1;overflow=hidden;whiteSpace=wrap;html=1;" parent="kqIVONm1dLysE9pT50F9-182" vertex="1">
          <mxGeometry width="30" height="30" as="geometry">
            <mxRectangle width="30" height="30" as="alternateBounds" />
          </mxGeometry>
        </mxCell>
        <mxCell id="kqIVONm1dLysE9pT50F9-184" value="" style="shape=partialRectangle;connectable=0;fillColor=none;top=0;left=0;bottom=0;right=0;align=left;spacingLeft=6;overflow=hidden;whiteSpace=wrap;html=1;" parent="kqIVONm1dLysE9pT50F9-182" vertex="1">
          <mxGeometry x="30" width="150" height="30" as="geometry">
            <mxRectangle width="150" height="30" as="alternateBounds" />
          </mxGeometry>
        </mxCell>
        <mxCell id="kqIVONm1dLysE9pT50F9-188" value="" style="shape=tableRow;horizontal=0;startSize=0;swimlaneHead=0;swimlaneBody=0;fillColor=none;collapsible=0;dropTarget=0;points=[[0,0.5],[1,0.5]];portConstraint=eastwest;top=0;left=0;right=0;bottom=0;" parent="kqIVONm1dLysE9pT50F9-172" vertex="1">
          <mxGeometry y="190" width="180" height="30" as="geometry" />
        </mxCell>
        <mxCell id="kqIVONm1dLysE9pT50F9-189" value="" style="shape=partialRectangle;connectable=0;fillColor=none;top=0;left=0;bottom=0;right=0;editable=1;overflow=hidden;" parent="kqIVONm1dLysE9pT50F9-188" vertex="1">
          <mxGeometry width="30" height="30" as="geometry">
            <mxRectangle width="30" height="30" as="alternateBounds" />
          </mxGeometry>
        </mxCell>
        <mxCell id="kqIVONm1dLysE9pT50F9-190" value="page_to_print" style="shape=partialRectangle;connectable=0;fillColor=none;top=0;left=0;bottom=0;right=0;align=left;spacingLeft=6;overflow=hidden;" parent="kqIVONm1dLysE9pT50F9-188" vertex="1">
          <mxGeometry x="30" width="150" height="30" as="geometry">
            <mxRectangle width="150" height="30" as="alternateBounds" />
          </mxGeometry>
        </mxCell>
        <mxCell id="kqIVONm1dLysE9pT50F9-205" value="" style="shape=tableRow;horizontal=0;startSize=0;swimlaneHead=0;swimlaneBody=0;fillColor=none;collapsible=0;dropTarget=0;points=[[0,0.5],[1,0.5]];portConstraint=eastwest;top=0;left=0;right=0;bottom=0;" parent="kqIVONm1dLysE9pT50F9-172" vertex="1">
          <mxGeometry y="220" width="180" height="30" as="geometry" />
        </mxCell>
        <mxCell id="kqIVONm1dLysE9pT50F9-206" value="" style="shape=partialRectangle;connectable=0;fillColor=none;top=0;left=0;bottom=0;right=0;editable=1;overflow=hidden;" parent="kqIVONm1dLysE9pT50F9-205" vertex="1">
          <mxGeometry width="30" height="30" as="geometry">
            <mxRectangle width="30" height="30" as="alternateBounds" />
          </mxGeometry>
        </mxCell>
        <mxCell id="kqIVONm1dLysE9pT50F9-207" value="number_of_copies" style="shape=partialRectangle;connectable=0;fillColor=none;top=0;left=0;bottom=0;right=0;align=left;spacingLeft=6;overflow=hidden;" parent="kqIVONm1dLysE9pT50F9-205" vertex="1">
          <mxGeometry x="30" width="150" height="30" as="geometry">
            <mxRectangle width="150" height="30" as="alternateBounds" />
          </mxGeometry>
        </mxCell>
        <mxCell id="kqIVONm1dLysE9pT50F9-212" value="" style="shape=tableRow;horizontal=0;startSize=0;swimlaneHead=0;swimlaneBody=0;fillColor=none;collapsible=0;dropTarget=0;points=[[0,0.5],[1,0.5]];portConstraint=eastwest;top=0;left=0;right=0;bottom=0;" parent="kqIVONm1dLysE9pT50F9-172" vertex="1">
          <mxGeometry y="250" width="180" height="30" as="geometry" />
        </mxCell>
        <mxCell id="kqIVONm1dLysE9pT50F9-213" value="" style="shape=partialRectangle;connectable=0;fillColor=none;top=0;left=0;bottom=0;right=0;editable=1;overflow=hidden;" parent="kqIVONm1dLysE9pT50F9-212" vertex="1">
          <mxGeometry width="30" height="30" as="geometry">
            <mxRectangle width="30" height="30" as="alternateBounds" />
          </mxGeometry>
        </mxCell>
        <mxCell id="kqIVONm1dLysE9pT50F9-214" value="create_at" style="shape=partialRectangle;connectable=0;fillColor=none;top=0;left=0;bottom=0;right=0;align=left;spacingLeft=6;overflow=hidden;" parent="kqIVONm1dLysE9pT50F9-212" vertex="1">
          <mxGeometry x="30" width="150" height="30" as="geometry">
            <mxRectangle width="150" height="30" as="alternateBounds" />
          </mxGeometry>
        </mxCell>
        <mxCell id="kqIVONm1dLysE9pT50F9-202" value="" style="shape=tableRow;horizontal=0;startSize=0;swimlaneHead=0;swimlaneBody=0;fillColor=none;collapsible=0;dropTarget=0;points=[[0,0.5],[1,0.5]];portConstraint=eastwest;top=0;left=0;right=0;bottom=0;" parent="kqIVONm1dLysE9pT50F9-172" vertex="1">
          <mxGeometry y="280" width="180" height="30" as="geometry" />
        </mxCell>
        <mxCell id="kqIVONm1dLysE9pT50F9-203" value="" style="shape=partialRectangle;connectable=0;fillColor=none;top=0;left=0;bottom=0;right=0;editable=1;overflow=hidden;" parent="kqIVONm1dLysE9pT50F9-202" vertex="1">
          <mxGeometry width="30" height="30" as="geometry">
            <mxRectangle width="30" height="30" as="alternateBounds" />
          </mxGeometry>
        </mxCell>
        <mxCell id="kqIVONm1dLysE9pT50F9-204" value="duplex" style="shape=partialRectangle;connectable=0;fillColor=none;top=0;left=0;bottom=0;right=0;align=left;spacingLeft=6;overflow=hidden;" parent="kqIVONm1dLysE9pT50F9-202" vertex="1">
          <mxGeometry x="30" width="150" height="30" as="geometry">
            <mxRectangle width="150" height="30" as="alternateBounds" />
          </mxGeometry>
        </mxCell>
        <mxCell id="kqIVONm1dLysE9pT50F9-216" value="" style="endArrow=classic;html=1;rounded=0;exitX=1;exitY=0.5;exitDx=0;exitDy=0;entryX=0;entryY=0.5;entryDx=0;entryDy=0;edgeStyle=orthogonalEdgeStyle;curved=1;" parent="1" source="kqIVONm1dLysE9pT50F9-185" target="kqIVONm1dLysE9pT50F9-149" edge="1">
          <mxGeometry width="50" height="50" relative="1" as="geometry">
            <mxPoint x="-2710" y="-210" as="sourcePoint" />
            <mxPoint x="-2660" y="-260" as="targetPoint" />
          </mxGeometry>
        </mxCell>
        <mxCell id="kqIVONm1dLysE9pT50F9-217" value="" style="endArrow=classic;html=1;rounded=0;entryX=1;entryY=0.5;entryDx=0;entryDy=0;exitX=0;exitY=0.5;exitDx=0;exitDy=0;edgeStyle=orthogonalEdgeStyle;curved=1;" parent="1" source="kqIVONm1dLysE9pT50F9-44" target="kqIVONm1dLysE9pT50F9-146" edge="1">
          <mxGeometry width="50" height="50" relative="1" as="geometry">
            <mxPoint x="-2320" y="-270" as="sourcePoint" />
            <mxPoint x="-2270" y="-320" as="targetPoint" />
          </mxGeometry>
        </mxCell>
        <mxCell id="kqIVONm1dLysE9pT50F9-221" value="PRINTER" style="shape=table;startSize=30;container=1;collapsible=1;childLayout=tableLayout;fixedRows=1;rowLines=0;fontStyle=1;align=center;resizeLast=1;html=1;" parent="1" vertex="1">
          <mxGeometry x="-2540" y="195" width="180" height="360" as="geometry" />
        </mxCell>
        <mxCell id="kqIVONm1dLysE9pT50F9-222" value="" style="shape=tableRow;horizontal=0;startSize=0;swimlaneHead=0;swimlaneBody=0;fillColor=none;collapsible=0;dropTarget=0;points=[[0,0.5],[1,0.5]];portConstraint=eastwest;top=0;left=0;right=0;bottom=1;" parent="kqIVONm1dLysE9pT50F9-221" vertex="1">
          <mxGeometry y="30" width="180" height="30" as="geometry" />
        </mxCell>
        <mxCell id="kqIVONm1dLysE9pT50F9-223" value="PK" style="shape=partialRectangle;connectable=0;fillColor=none;top=0;left=0;bottom=0;right=0;fontStyle=1;overflow=hidden;whiteSpace=wrap;html=1;" parent="kqIVONm1dLysE9pT50F9-222" vertex="1">
          <mxGeometry width="30" height="30" as="geometry">
            <mxRectangle width="30" height="30" as="alternateBounds" />
          </mxGeometry>
        </mxCell>
        <mxCell id="kqIVONm1dLysE9pT50F9-224" value="printer_id" style="shape=partialRectangle;connectable=0;fillColor=none;top=0;left=0;bottom=0;right=0;align=left;spacingLeft=6;fontStyle=5;overflow=hidden;whiteSpace=wrap;html=1;" parent="kqIVONm1dLysE9pT50F9-222" vertex="1">
          <mxGeometry x="30" width="150" height="30" as="geometry">
            <mxRectangle width="150" height="30" as="alternateBounds" />
          </mxGeometry>
        </mxCell>
        <mxCell id="kqIVONm1dLysE9pT50F9-225" value="" style="shape=tableRow;horizontal=0;startSize=0;swimlaneHead=0;swimlaneBody=0;fillColor=none;collapsible=0;dropTarget=0;points=[[0,0.5],[1,0.5]];portConstraint=eastwest;top=0;left=0;right=0;bottom=0;" parent="kqIVONm1dLysE9pT50F9-221" vertex="1">
          <mxGeometry y="60" width="180" height="30" as="geometry" />
        </mxCell>
        <mxCell id="kqIVONm1dLysE9pT50F9-226" value="" style="shape=partialRectangle;connectable=0;fillColor=none;top=0;left=0;bottom=0;right=0;editable=1;overflow=hidden;whiteSpace=wrap;html=1;" parent="kqIVONm1dLysE9pT50F9-225" vertex="1">
          <mxGeometry width="30" height="30" as="geometry">
            <mxRectangle width="30" height="30" as="alternateBounds" />
          </mxGeometry>
        </mxCell>
        <mxCell id="kqIVONm1dLysE9pT50F9-227" value="printer_name" style="shape=partialRectangle;connectable=0;fillColor=none;top=0;left=0;bottom=0;right=0;align=left;spacingLeft=6;overflow=hidden;whiteSpace=wrap;html=1;" parent="kqIVONm1dLysE9pT50F9-225" vertex="1">
          <mxGeometry x="30" width="150" height="30" as="geometry">
            <mxRectangle width="150" height="30" as="alternateBounds" />
          </mxGeometry>
        </mxCell>
        <mxCell id="kqIVONm1dLysE9pT50F9-228" value="" style="shape=tableRow;horizontal=0;startSize=0;swimlaneHead=0;swimlaneBody=0;fillColor=none;collapsible=0;dropTarget=0;points=[[0,0.5],[1,0.5]];portConstraint=eastwest;top=0;left=0;right=0;bottom=0;" parent="kqIVONm1dLysE9pT50F9-221" vertex="1">
          <mxGeometry y="90" width="180" height="30" as="geometry" />
        </mxCell>
        <mxCell id="kqIVONm1dLysE9pT50F9-229" value="" style="shape=partialRectangle;connectable=0;fillColor=none;top=0;left=0;bottom=0;right=0;editable=1;overflow=hidden;whiteSpace=wrap;html=1;" parent="kqIVONm1dLysE9pT50F9-228" vertex="1">
          <mxGeometry width="30" height="30" as="geometry">
            <mxRectangle width="30" height="30" as="alternateBounds" />
          </mxGeometry>
        </mxCell>
        <mxCell id="kqIVONm1dLysE9pT50F9-230" value="brand_name" style="shape=partialRectangle;connectable=0;fillColor=none;top=0;left=0;bottom=0;right=0;align=left;spacingLeft=6;overflow=hidden;whiteSpace=wrap;html=1;" parent="kqIVONm1dLysE9pT50F9-228" vertex="1">
          <mxGeometry x="30" width="150" height="30" as="geometry">
            <mxRectangle width="150" height="30" as="alternateBounds" />
          </mxGeometry>
        </mxCell>
        <mxCell id="kqIVONm1dLysE9pT50F9-231" value="" style="shape=tableRow;horizontal=0;startSize=0;swimlaneHead=0;swimlaneBody=0;fillColor=none;collapsible=0;dropTarget=0;points=[[0,0.5],[1,0.5]];portConstraint=eastwest;top=0;left=0;right=0;bottom=0;" parent="kqIVONm1dLysE9pT50F9-221" vertex="1">
          <mxGeometry y="120" width="180" height="30" as="geometry" />
        </mxCell>
        <mxCell id="kqIVONm1dLysE9pT50F9-232" value="" style="shape=partialRectangle;connectable=0;fillColor=none;top=0;left=0;bottom=0;right=0;editable=1;overflow=hidden;whiteSpace=wrap;html=1;" parent="kqIVONm1dLysE9pT50F9-231" vertex="1">
          <mxGeometry width="30" height="30" as="geometry">
            <mxRectangle width="30" height="30" as="alternateBounds" />
          </mxGeometry>
        </mxCell>
        <mxCell id="kqIVONm1dLysE9pT50F9-233" value="model" style="shape=partialRectangle;connectable=0;fillColor=none;top=0;left=0;bottom=0;right=0;align=left;spacingLeft=6;overflow=hidden;whiteSpace=wrap;html=1;" parent="kqIVONm1dLysE9pT50F9-231" vertex="1">
          <mxGeometry x="30" width="150" height="30" as="geometry">
            <mxRectangle width="150" height="30" as="alternateBounds" />
          </mxGeometry>
        </mxCell>
        <mxCell id="kqIVONm1dLysE9pT50F9-238" value="" style="shape=tableRow;horizontal=0;startSize=0;swimlaneHead=0;swimlaneBody=0;fillColor=none;collapsible=0;dropTarget=0;points=[[0,0.5],[1,0.5]];portConstraint=eastwest;top=0;left=0;right=0;bottom=0;" parent="kqIVONm1dLysE9pT50F9-221" vertex="1">
          <mxGeometry y="150" width="180" height="30" as="geometry" />
        </mxCell>
        <mxCell id="kqIVONm1dLysE9pT50F9-239" value="" style="shape=partialRectangle;connectable=0;fillColor=none;top=0;left=0;bottom=0;right=0;editable=1;overflow=hidden;" parent="kqIVONm1dLysE9pT50F9-238" vertex="1">
          <mxGeometry width="30" height="30" as="geometry">
            <mxRectangle width="30" height="30" as="alternateBounds" />
          </mxGeometry>
        </mxCell>
        <mxCell id="kqIVONm1dLysE9pT50F9-240" value="description" style="shape=partialRectangle;connectable=0;fillColor=none;top=0;left=0;bottom=0;right=0;align=left;spacingLeft=6;overflow=hidden;" parent="kqIVONm1dLysE9pT50F9-238" vertex="1">
          <mxGeometry x="30" width="150" height="30" as="geometry">
            <mxRectangle width="150" height="30" as="alternateBounds" />
          </mxGeometry>
        </mxCell>
        <mxCell id="kqIVONm1dLysE9pT50F9-244" value="" style="shape=tableRow;horizontal=0;startSize=0;swimlaneHead=0;swimlaneBody=0;fillColor=none;collapsible=0;dropTarget=0;points=[[0,0.5],[1,0.5]];portConstraint=eastwest;top=0;left=0;right=0;bottom=0;" parent="kqIVONm1dLysE9pT50F9-221" vertex="1">
          <mxGeometry y="180" width="180" height="30" as="geometry" />
        </mxCell>
        <mxCell id="kqIVONm1dLysE9pT50F9-245" value="" style="shape=partialRectangle;connectable=0;fillColor=none;top=0;left=0;bottom=0;right=0;editable=1;overflow=hidden;" parent="kqIVONm1dLysE9pT50F9-244" vertex="1">
          <mxGeometry width="30" height="30" as="geometry">
            <mxRectangle width="30" height="30" as="alternateBounds" />
          </mxGeometry>
        </mxCell>
        <mxCell id="kqIVONm1dLysE9pT50F9-246" value="campus_name" style="shape=partialRectangle;connectable=0;fillColor=none;top=0;left=0;bottom=0;right=0;align=left;spacingLeft=6;overflow=hidden;" parent="kqIVONm1dLysE9pT50F9-244" vertex="1">
          <mxGeometry x="30" width="150" height="30" as="geometry">
            <mxRectangle width="150" height="30" as="alternateBounds" />
          </mxGeometry>
        </mxCell>
        <mxCell id="kqIVONm1dLysE9pT50F9-241" value="" style="shape=tableRow;horizontal=0;startSize=0;swimlaneHead=0;swimlaneBody=0;fillColor=none;collapsible=0;dropTarget=0;points=[[0,0.5],[1,0.5]];portConstraint=eastwest;top=0;left=0;right=0;bottom=0;" parent="kqIVONm1dLysE9pT50F9-221" vertex="1">
          <mxGeometry y="210" width="180" height="30" as="geometry" />
        </mxCell>
        <mxCell id="kqIVONm1dLysE9pT50F9-242" value="" style="shape=partialRectangle;connectable=0;fillColor=none;top=0;left=0;bottom=0;right=0;editable=1;overflow=hidden;" parent="kqIVONm1dLysE9pT50F9-241" vertex="1">
          <mxGeometry width="30" height="30" as="geometry">
            <mxRectangle width="30" height="30" as="alternateBounds" />
          </mxGeometry>
        </mxCell>
        <mxCell id="kqIVONm1dLysE9pT50F9-243" value="building_name" style="shape=partialRectangle;connectable=0;fillColor=none;top=0;left=0;bottom=0;right=0;align=left;spacingLeft=6;overflow=hidden;" parent="kqIVONm1dLysE9pT50F9-241" vertex="1">
          <mxGeometry x="30" width="150" height="30" as="geometry">
            <mxRectangle width="150" height="30" as="alternateBounds" />
          </mxGeometry>
        </mxCell>
        <mxCell id="kqIVONm1dLysE9pT50F9-247" value="" style="shape=tableRow;horizontal=0;startSize=0;swimlaneHead=0;swimlaneBody=0;fillColor=none;collapsible=0;dropTarget=0;points=[[0,0.5],[1,0.5]];portConstraint=eastwest;top=0;left=0;right=0;bottom=0;" parent="kqIVONm1dLysE9pT50F9-221" vertex="1">
          <mxGeometry y="240" width="180" height="30" as="geometry" />
        </mxCell>
        <mxCell id="kqIVONm1dLysE9pT50F9-248" value="" style="shape=partialRectangle;connectable=0;fillColor=none;top=0;left=0;bottom=0;right=0;editable=1;overflow=hidden;" parent="kqIVONm1dLysE9pT50F9-247" vertex="1">
          <mxGeometry width="30" height="30" as="geometry">
            <mxRectangle width="30" height="30" as="alternateBounds" />
          </mxGeometry>
        </mxCell>
        <mxCell id="kqIVONm1dLysE9pT50F9-249" value="room_number" style="shape=partialRectangle;connectable=0;fillColor=none;top=0;left=0;bottom=0;right=0;align=left;spacingLeft=6;overflow=hidden;" parent="kqIVONm1dLysE9pT50F9-247" vertex="1">
          <mxGeometry x="30" width="150" height="30" as="geometry">
            <mxRectangle width="150" height="30" as="alternateBounds" />
          </mxGeometry>
        </mxCell>
        <mxCell id="kqIVONm1dLysE9pT50F9-250" value="" style="shape=tableRow;horizontal=0;startSize=0;swimlaneHead=0;swimlaneBody=0;fillColor=none;collapsible=0;dropTarget=0;points=[[0,0.5],[1,0.5]];portConstraint=eastwest;top=0;left=0;right=0;bottom=0;" parent="kqIVONm1dLysE9pT50F9-221" vertex="1">
          <mxGeometry y="270" width="180" height="30" as="geometry" />
        </mxCell>
        <mxCell id="kqIVONm1dLysE9pT50F9-251" value="" style="shape=partialRectangle;connectable=0;fillColor=none;top=0;left=0;bottom=0;right=0;editable=1;overflow=hidden;" parent="kqIVONm1dLysE9pT50F9-250" vertex="1">
          <mxGeometry width="30" height="30" as="geometry">
            <mxRectangle width="30" height="30" as="alternateBounds" />
          </mxGeometry>
        </mxCell>
        <mxCell id="kqIVONm1dLysE9pT50F9-252" value="update_at" style="shape=partialRectangle;connectable=0;fillColor=none;top=0;left=0;bottom=0;right=0;align=left;spacingLeft=6;overflow=hidden;" parent="kqIVONm1dLysE9pT50F9-250" vertex="1">
          <mxGeometry x="30" width="150" height="30" as="geometry">
            <mxRectangle width="150" height="30" as="alternateBounds" />
          </mxGeometry>
        </mxCell>
        <mxCell id="kqIVONm1dLysE9pT50F9-253" value="" style="shape=tableRow;horizontal=0;startSize=0;swimlaneHead=0;swimlaneBody=0;fillColor=none;collapsible=0;dropTarget=0;points=[[0,0.5],[1,0.5]];portConstraint=eastwest;top=0;left=0;right=0;bottom=0;" parent="kqIVONm1dLysE9pT50F9-221" vertex="1">
          <mxGeometry y="300" width="180" height="30" as="geometry" />
        </mxCell>
        <mxCell id="kqIVONm1dLysE9pT50F9-254" value="" style="shape=partialRectangle;connectable=0;fillColor=none;top=0;left=0;bottom=0;right=0;editable=1;overflow=hidden;" parent="kqIVONm1dLysE9pT50F9-253" vertex="1">
          <mxGeometry width="30" height="30" as="geometry">
            <mxRectangle width="30" height="30" as="alternateBounds" />
          </mxGeometry>
        </mxCell>
        <mxCell id="kqIVONm1dLysE9pT50F9-255" value="create_at" style="shape=partialRectangle;connectable=0;fillColor=none;top=0;left=0;bottom=0;right=0;align=left;spacingLeft=6;overflow=hidden;" parent="kqIVONm1dLysE9pT50F9-253" vertex="1">
          <mxGeometry x="30" width="150" height="30" as="geometry">
            <mxRectangle width="150" height="30" as="alternateBounds" />
          </mxGeometry>
        </mxCell>
        <mxCell id="kqIVONm1dLysE9pT50F9-256" value="" style="shape=tableRow;horizontal=0;startSize=0;swimlaneHead=0;swimlaneBody=0;fillColor=none;collapsible=0;dropTarget=0;points=[[0,0.5],[1,0.5]];portConstraint=eastwest;top=0;left=0;right=0;bottom=0;" parent="kqIVONm1dLysE9pT50F9-221" vertex="1">
          <mxGeometry y="330" width="180" height="30" as="geometry" />
        </mxCell>
        <mxCell id="kqIVONm1dLysE9pT50F9-257" value="" style="shape=partialRectangle;connectable=0;fillColor=none;top=0;left=0;bottom=0;right=0;editable=1;overflow=hidden;" parent="kqIVONm1dLysE9pT50F9-256" vertex="1">
          <mxGeometry width="30" height="30" as="geometry">
            <mxRectangle width="30" height="30" as="alternateBounds" />
          </mxGeometry>
        </mxCell>
        <mxCell id="kqIVONm1dLysE9pT50F9-258" value="status" style="shape=partialRectangle;connectable=0;fillColor=none;top=0;left=0;bottom=0;right=0;align=left;spacingLeft=6;overflow=hidden;" parent="kqIVONm1dLysE9pT50F9-256" vertex="1">
          <mxGeometry x="30" width="150" height="30" as="geometry">
            <mxRectangle width="150" height="30" as="alternateBounds" />
          </mxGeometry>
        </mxCell>
        <mxCell id="kqIVONm1dLysE9pT50F9-262" value="" style="endArrow=classic;html=1;rounded=0;entryX=0;entryY=0.5;entryDx=0;entryDy=0;exitX=0;exitY=0.5;exitDx=0;exitDy=0;edgeStyle=orthogonalEdgeStyle;curved=1;" parent="1" source="kqIVONm1dLysE9pT50F9-222" target="kqIVONm1dLysE9pT50F9-218" edge="1">
          <mxGeometry width="50" height="50" relative="1" as="geometry">
            <mxPoint x="-2710" y="90" as="sourcePoint" />
            <mxPoint x="-2660" y="40" as="targetPoint" />
            <Array as="points">
              <mxPoint x="-2630" y="165" />
              <mxPoint x="-2630" y="-150" />
            </Array>
          </mxGeometry>
        </mxCell>
        <mxCell id="yPePk5AXQ9-rEXU3vP_E-14" value="&lt;span style=&quot;font-size: 18px;&quot;&gt;start_date&lt;/span&gt;" style="ellipse;whiteSpace=wrap;html=1;align=center;" vertex="1" parent="1">
          <mxGeometry x="-1160" y="525" width="200" height="90" as="geometry" />
        </mxCell>
        <mxCell id="yPePk5AXQ9-rEXU3vP_E-15" value="&lt;span style=&quot;font-size: 18px;&quot;&gt;end_date&lt;/span&gt;" style="ellipse;whiteSpace=wrap;html=1;align=center;" vertex="1" parent="1">
          <mxGeometry x="-900" y="515" width="200" height="90" as="geometry" />
        </mxCell>
        <mxCell id="yPePk5AXQ9-rEXU3vP_E-19" value="" style="endArrow=none;html=1;rounded=0;" edge="1" parent="1" source="yPePk5AXQ9-rEXU3vP_E-14" target="yPePk5AXQ9-rEXU3vP_E-24">
          <mxGeometry relative="1" as="geometry">
            <mxPoint x="-848" y="124" as="sourcePoint" />
            <mxPoint x="-754" y="315" as="targetPoint" />
          </mxGeometry>
        </mxCell>
        <mxCell id="yPePk5AXQ9-rEXU3vP_E-21" value="" style="endArrow=none;html=1;rounded=0;" edge="1" parent="1" source="yPePk5AXQ9-rEXU3vP_E-15" target="yPePk5AXQ9-rEXU3vP_E-24">
          <mxGeometry relative="1" as="geometry">
            <mxPoint x="-543" y="107" as="sourcePoint" />
            <mxPoint x="-706" y="315" as="targetPoint" />
          </mxGeometry>
        </mxCell>
        <mxCell id="yPePk5AXQ9-rEXU3vP_E-24" value="&lt;span style=&quot;font-size: 23px;&quot;&gt;&lt;b&gt;SEMESTER_PAGE_ALLOCATION&lt;/b&gt;&lt;/span&gt;" style="rounded=0;whiteSpace=wrap;html=1;" vertex="1" parent="1">
          <mxGeometry x="-950" y="760" width="430" height="75" as="geometry" />
        </mxCell>
        <mxCell id="yPePk5AXQ9-rEXU3vP_E-25" value="&lt;u style=&quot;&quot;&gt;&lt;font style=&quot;font-size: 22px;&quot;&gt;allocation_id&lt;/font&gt;&lt;/u&gt;" style="ellipse;whiteSpace=wrap;html=1;" vertex="1" parent="1">
          <mxGeometry x="-1300" y="730" width="150" height="80" as="geometry" />
        </mxCell>
        <mxCell id="yPePk5AXQ9-rEXU3vP_E-26" value="" style="endArrow=none;html=1;rounded=0;" edge="1" parent="1" source="yPePk5AXQ9-rEXU3vP_E-25" target="yPePk5AXQ9-rEXU3vP_E-24">
          <mxGeometry relative="1" as="geometry">
            <mxPoint x="-940" y="640" as="sourcePoint" />
            <mxPoint x="-780" y="640" as="targetPoint" />
          </mxGeometry>
        </mxCell>
        <mxCell id="yPePk5AXQ9-rEXU3vP_E-29" value="&lt;span style=&quot;font-size: 18px;&quot;&gt;create_at&lt;/span&gt;" style="ellipse;whiteSpace=wrap;html=1;align=center;" vertex="1" parent="1">
          <mxGeometry x="-1090" y="910" width="200" height="90" as="geometry" />
        </mxCell>
        <mxCell id="yPePk5AXQ9-rEXU3vP_E-30" value="&lt;span style=&quot;font-size: 18px;&quot;&gt;semester_name&lt;/span&gt;" style="ellipse;whiteSpace=wrap;html=1;align=center;" vertex="1" parent="1">
          <mxGeometry x="-1325" y="870" width="200" height="90" as="geometry" />
        </mxCell>
        <mxCell id="yPePk5AXQ9-rEXU3vP_E-31" value="" style="endArrow=none;html=1;rounded=0;entryX=0.25;entryY=1;entryDx=0;entryDy=0;" edge="1" parent="1" source="yPePk5AXQ9-rEXU3vP_E-30" target="yPePk5AXQ9-rEXU3vP_E-24">
          <mxGeometry relative="1" as="geometry">
            <mxPoint x="-955" y="724" as="sourcePoint" />
            <mxPoint x="-839" y="770" as="targetPoint" />
          </mxGeometry>
        </mxCell>
        <mxCell id="yPePk5AXQ9-rEXU3vP_E-32" value="" style="endArrow=none;html=1;rounded=0;entryX=0.5;entryY=1;entryDx=0;entryDy=0;" edge="1" parent="1" source="yPePk5AXQ9-rEXU3vP_E-29" target="yPePk5AXQ9-rEXU3vP_E-24">
          <mxGeometry relative="1" as="geometry">
            <mxPoint x="-810" y="640" as="sourcePoint" />
            <mxPoint x="-680" y="840" as="targetPoint" />
          </mxGeometry>
        </mxCell>
        <mxCell id="yPePk5AXQ9-rEXU3vP_E-33" value="&lt;font style=&quot;font-size: 26px;&quot;&gt;HAVE&lt;/font&gt;" style="shape=rhombus;perimeter=rhombusPerimeter;whiteSpace=wrap;html=1;align=center;" vertex="1" parent="1">
          <mxGeometry x="-375" y="560" width="290" height="120" as="geometry" />
        </mxCell>
        <mxCell id="yPePk5AXQ9-rEXU3vP_E-38" value="&lt;span style=&quot;font-size: 18px;&quot;&gt;page_allocated&lt;/span&gt;" style="ellipse;whiteSpace=wrap;html=1;align=center;" vertex="1" parent="1">
          <mxGeometry x="-880" y="970" width="200" height="90" as="geometry" />
        </mxCell>
        <mxCell id="yPePk5AXQ9-rEXU3vP_E-39" value="" style="endArrow=none;html=1;rounded=0;" edge="1" parent="1" source="yPePk5AXQ9-rEXU3vP_E-38" target="yPePk5AXQ9-rEXU3vP_E-24">
          <mxGeometry relative="1" as="geometry">
            <mxPoint x="-971" y="999" as="sourcePoint" />
            <mxPoint x="-725" y="845" as="targetPoint" />
          </mxGeometry>
        </mxCell>
        <mxCell id="yPePk5AXQ9-rEXU3vP_E-45" value="" style="endArrow=none;html=1;rounded=0;entryX=0;entryY=0.5;entryDx=0;entryDy=0;exitX=1;exitY=0;exitDx=0;exitDy=0;" edge="1" parent="1" source="yPePk5AXQ9-rEXU3vP_E-24" target="yPePk5AXQ9-rEXU3vP_E-33">
          <mxGeometry relative="1" as="geometry">
            <mxPoint x="-640" y="670" as="sourcePoint" />
            <mxPoint x="-480" y="670" as="targetPoint" />
          </mxGeometry>
        </mxCell>
        <mxCell id="yPePk5AXQ9-rEXU3vP_E-46" value="1" style="resizable=0;html=1;whiteSpace=wrap;align=right;verticalAlign=bottom;" connectable="0" vertex="1" parent="yPePk5AXQ9-rEXU3vP_E-45">
          <mxGeometry x="1" relative="1" as="geometry" />
        </mxCell>
        <mxCell id="yPePk5AXQ9-rEXU3vP_E-47" value="" style="endArrow=none;html=1;rounded=0;entryX=1;entryY=0.5;entryDx=0;entryDy=0;exitX=0;exitY=0.5;exitDx=0;exitDy=0;" edge="1" parent="1" source="JlgmeeBGbs_2zezeXvUX-12" target="yPePk5AXQ9-rEXU3vP_E-33">
          <mxGeometry relative="1" as="geometry">
            <mxPoint x="-30" y="570" as="sourcePoint" />
            <mxPoint x="130" y="570" as="targetPoint" />
          </mxGeometry>
        </mxCell>
        <mxCell id="yPePk5AXQ9-rEXU3vP_E-48" value="N" style="resizable=0;html=1;whiteSpace=wrap;align=right;verticalAlign=bottom;" connectable="0" vertex="1" parent="yPePk5AXQ9-rEXU3vP_E-47">
          <mxGeometry x="1" relative="1" as="geometry" />
        </mxCell>
        <mxCell id="yPePk5AXQ9-rEXU3vP_E-49" value="SEMESTER_PAGE_ALLOCATION" style="shape=table;startSize=30;container=1;collapsible=1;childLayout=tableLayout;fixedRows=1;rowLines=0;fontStyle=1;align=center;resizeLast=1;html=1;" vertex="1" parent="1">
          <mxGeometry x="-2620" y="-640" width="270" height="210" as="geometry" />
        </mxCell>
        <mxCell id="yPePk5AXQ9-rEXU3vP_E-50" value="" style="shape=tableRow;horizontal=0;startSize=0;swimlaneHead=0;swimlaneBody=0;fillColor=none;collapsible=0;dropTarget=0;points=[[0,0.5],[1,0.5]];portConstraint=eastwest;top=0;left=0;right=0;bottom=1;" vertex="1" parent="yPePk5AXQ9-rEXU3vP_E-49">
          <mxGeometry y="30" width="270" height="30" as="geometry" />
        </mxCell>
        <mxCell id="yPePk5AXQ9-rEXU3vP_E-51" value="PK" style="shape=partialRectangle;connectable=0;fillColor=none;top=0;left=0;bottom=0;right=0;fontStyle=1;overflow=hidden;whiteSpace=wrap;html=1;" vertex="1" parent="yPePk5AXQ9-rEXU3vP_E-50">
          <mxGeometry width="30" height="30" as="geometry">
            <mxRectangle width="30" height="30" as="alternateBounds" />
          </mxGeometry>
        </mxCell>
        <mxCell id="yPePk5AXQ9-rEXU3vP_E-52" value="allocation_id" style="shape=partialRectangle;connectable=0;fillColor=none;top=0;left=0;bottom=0;right=0;align=left;spacingLeft=6;fontStyle=5;overflow=hidden;whiteSpace=wrap;html=1;" vertex="1" parent="yPePk5AXQ9-rEXU3vP_E-50">
          <mxGeometry x="30" width="240" height="30" as="geometry">
            <mxRectangle width="240" height="30" as="alternateBounds" />
          </mxGeometry>
        </mxCell>
        <mxCell id="yPePk5AXQ9-rEXU3vP_E-53" value="" style="shape=tableRow;horizontal=0;startSize=0;swimlaneHead=0;swimlaneBody=0;fillColor=none;collapsible=0;dropTarget=0;points=[[0,0.5],[1,0.5]];portConstraint=eastwest;top=0;left=0;right=0;bottom=0;" vertex="1" parent="yPePk5AXQ9-rEXU3vP_E-49">
          <mxGeometry y="60" width="270" height="30" as="geometry" />
        </mxCell>
        <mxCell id="yPePk5AXQ9-rEXU3vP_E-54" value="" style="shape=partialRectangle;connectable=0;fillColor=none;top=0;left=0;bottom=0;right=0;editable=1;overflow=hidden;whiteSpace=wrap;html=1;" vertex="1" parent="yPePk5AXQ9-rEXU3vP_E-53">
          <mxGeometry width="30" height="30" as="geometry">
            <mxRectangle width="30" height="30" as="alternateBounds" />
          </mxGeometry>
        </mxCell>
        <mxCell id="yPePk5AXQ9-rEXU3vP_E-55" value="semester_name" style="shape=partialRectangle;connectable=0;fillColor=none;top=0;left=0;bottom=0;right=0;align=left;spacingLeft=6;overflow=hidden;whiteSpace=wrap;html=1;" vertex="1" parent="yPePk5AXQ9-rEXU3vP_E-53">
          <mxGeometry x="30" width="240" height="30" as="geometry">
            <mxRectangle width="240" height="30" as="alternateBounds" />
          </mxGeometry>
        </mxCell>
        <mxCell id="yPePk5AXQ9-rEXU3vP_E-56" value="" style="shape=tableRow;horizontal=0;startSize=0;swimlaneHead=0;swimlaneBody=0;fillColor=none;collapsible=0;dropTarget=0;points=[[0,0.5],[1,0.5]];portConstraint=eastwest;top=0;left=0;right=0;bottom=0;" vertex="1" parent="yPePk5AXQ9-rEXU3vP_E-49">
          <mxGeometry y="90" width="270" height="30" as="geometry" />
        </mxCell>
        <mxCell id="yPePk5AXQ9-rEXU3vP_E-57" value="" style="shape=partialRectangle;connectable=0;fillColor=none;top=0;left=0;bottom=0;right=0;editable=1;overflow=hidden;whiteSpace=wrap;html=1;" vertex="1" parent="yPePk5AXQ9-rEXU3vP_E-56">
          <mxGeometry width="30" height="30" as="geometry">
            <mxRectangle width="30" height="30" as="alternateBounds" />
          </mxGeometry>
        </mxCell>
        <mxCell id="yPePk5AXQ9-rEXU3vP_E-58" value="create_at" style="shape=partialRectangle;connectable=0;fillColor=none;top=0;left=0;bottom=0;right=0;align=left;spacingLeft=6;overflow=hidden;whiteSpace=wrap;html=1;" vertex="1" parent="yPePk5AXQ9-rEXU3vP_E-56">
          <mxGeometry x="30" width="240" height="30" as="geometry">
            <mxRectangle width="240" height="30" as="alternateBounds" />
          </mxGeometry>
        </mxCell>
        <mxCell id="yPePk5AXQ9-rEXU3vP_E-59" value="" style="shape=tableRow;horizontal=0;startSize=0;swimlaneHead=0;swimlaneBody=0;fillColor=none;collapsible=0;dropTarget=0;points=[[0,0.5],[1,0.5]];portConstraint=eastwest;top=0;left=0;right=0;bottom=0;" vertex="1" parent="yPePk5AXQ9-rEXU3vP_E-49">
          <mxGeometry y="120" width="270" height="30" as="geometry" />
        </mxCell>
        <mxCell id="yPePk5AXQ9-rEXU3vP_E-60" value="" style="shape=partialRectangle;connectable=0;fillColor=none;top=0;left=0;bottom=0;right=0;editable=1;overflow=hidden;whiteSpace=wrap;html=1;" vertex="1" parent="yPePk5AXQ9-rEXU3vP_E-59">
          <mxGeometry width="30" height="30" as="geometry">
            <mxRectangle width="30" height="30" as="alternateBounds" />
          </mxGeometry>
        </mxCell>
        <mxCell id="yPePk5AXQ9-rEXU3vP_E-61" value="start_date" style="shape=partialRectangle;connectable=0;fillColor=none;top=0;left=0;bottom=0;right=0;align=left;spacingLeft=6;overflow=hidden;whiteSpace=wrap;html=1;" vertex="1" parent="yPePk5AXQ9-rEXU3vP_E-59">
          <mxGeometry x="30" width="240" height="30" as="geometry">
            <mxRectangle width="240" height="30" as="alternateBounds" />
          </mxGeometry>
        </mxCell>
        <mxCell id="yPePk5AXQ9-rEXU3vP_E-62" value="" style="shape=tableRow;horizontal=0;startSize=0;swimlaneHead=0;swimlaneBody=0;fillColor=none;collapsible=0;dropTarget=0;points=[[0,0.5],[1,0.5]];portConstraint=eastwest;top=0;left=0;right=0;bottom=0;" vertex="1" parent="yPePk5AXQ9-rEXU3vP_E-49">
          <mxGeometry y="150" width="270" height="30" as="geometry" />
        </mxCell>
        <mxCell id="yPePk5AXQ9-rEXU3vP_E-63" value="" style="shape=partialRectangle;connectable=0;fillColor=none;top=0;left=0;bottom=0;right=0;editable=1;overflow=hidden;" vertex="1" parent="yPePk5AXQ9-rEXU3vP_E-62">
          <mxGeometry width="30" height="30" as="geometry">
            <mxRectangle width="30" height="30" as="alternateBounds" />
          </mxGeometry>
        </mxCell>
        <mxCell id="yPePk5AXQ9-rEXU3vP_E-64" value="end_date" style="shape=partialRectangle;connectable=0;fillColor=none;top=0;left=0;bottom=0;right=0;align=left;spacingLeft=6;overflow=hidden;" vertex="1" parent="yPePk5AXQ9-rEXU3vP_E-62">
          <mxGeometry x="30" width="240" height="30" as="geometry">
            <mxRectangle width="240" height="30" as="alternateBounds" />
          </mxGeometry>
        </mxCell>
        <mxCell id="yPePk5AXQ9-rEXU3vP_E-65" value="" style="shape=tableRow;horizontal=0;startSize=0;swimlaneHead=0;swimlaneBody=0;fillColor=none;collapsible=0;dropTarget=0;points=[[0,0.5],[1,0.5]];portConstraint=eastwest;top=0;left=0;right=0;bottom=0;" vertex="1" parent="yPePk5AXQ9-rEXU3vP_E-49">
          <mxGeometry y="180" width="270" height="30" as="geometry" />
        </mxCell>
        <mxCell id="yPePk5AXQ9-rEXU3vP_E-66" value="" style="shape=partialRectangle;connectable=0;fillColor=none;top=0;left=0;bottom=0;right=0;editable=1;overflow=hidden;" vertex="1" parent="yPePk5AXQ9-rEXU3vP_E-65">
          <mxGeometry width="30" height="30" as="geometry">
            <mxRectangle width="30" height="30" as="alternateBounds" />
          </mxGeometry>
        </mxCell>
        <mxCell id="yPePk5AXQ9-rEXU3vP_E-67" value="page_allocated" style="shape=partialRectangle;connectable=0;fillColor=none;top=0;left=0;bottom=0;right=0;align=left;spacingLeft=6;overflow=hidden;" vertex="1" parent="yPePk5AXQ9-rEXU3vP_E-65">
          <mxGeometry x="30" width="240" height="30" as="geometry">
            <mxRectangle width="240" height="30" as="alternateBounds" />
          </mxGeometry>
        </mxCell>
        <mxCell id="yPePk5AXQ9-rEXU3vP_E-71" value="" style="endArrow=classic;html=1;rounded=0;entryX=0;entryY=0.5;entryDx=0;entryDy=0;exitX=1;exitY=0.5;exitDx=0;exitDy=0;edgeStyle=orthogonalEdgeStyle;curved=1;" edge="1" parent="1" source="yPePk5AXQ9-rEXU3vP_E-50" target="yPePk5AXQ9-rEXU3vP_E-68">
          <mxGeometry width="50" height="50" relative="1" as="geometry">
            <mxPoint x="-2440" y="-310" as="sourcePoint" />
            <mxPoint x="-2390" y="-360" as="targetPoint" />
          </mxGeometry>
        </mxCell>
      </root>
    </mxGraphModel>
  </diagram>
</mxfile>
